%TF.GenerationSoftware,KiCad,Pcbnew,5.0.2-bee76a0~70~ubuntu14.04.1*%
%TF.CreationDate,2021-10-08T16:33:51+02:00*%
%TF.ProjectId,Literkarte Pong,4c697465-726b-4617-9274-6520506f6e67,rev?*%
%TF.SameCoordinates,Original*%
%TF.FileFunction,Other,Fab,Top*%
%FSLAX46Y46*%
G04 Gerber Fmt 4.6, Leading zero omitted, Abs format (unit mm)*
G04 Created by KiCad (PCBNEW 5.0.2-bee76a0~70~ubuntu14.04.1) date Fr 08 Okt 2021 16:33:51 CEST*
%MOMM*%
%LPD*%
G01*
G04 APERTURE LIST*
%ADD10C,0.100000*%
%ADD11C,0.150000*%
G04 APERTURE END LIST*
D10*
%TO.C,J8*%
X189040000Y-108850000D02*
X189990000Y-108850000D01*
X189540000Y-109350000D02*
X189040000Y-108850000D01*
X189540000Y-109350000D02*
X190040000Y-108850000D01*
X195840000Y-108500000D02*
G75*
G03X195840000Y-108500000I-500000J0D01*
G01*
X191240000Y-108500000D02*
G75*
G03X191240000Y-108500000I-500000J0D01*
G01*
X189790000Y-112000000D02*
X189790000Y-109500000D01*
X189790000Y-112000000D02*
X189290000Y-112000000D01*
X189290000Y-112000000D02*
X189290000Y-109500000D01*
X191790000Y-112000000D02*
X191790000Y-109500000D01*
X192290000Y-112000000D02*
X192290000Y-109500000D01*
X192290000Y-112000000D02*
X191790000Y-112000000D01*
X194290000Y-112000000D02*
X194290000Y-109500000D01*
X194290000Y-112000000D02*
X193790000Y-112000000D01*
X193790000Y-112000000D02*
X193790000Y-109500000D01*
X196790000Y-112000000D02*
X196790000Y-109500000D01*
X196290000Y-112000000D02*
X196290000Y-109500000D01*
X196790000Y-112000000D02*
X196290000Y-112000000D01*
X199065000Y-90700000D02*
X187015000Y-90700000D01*
X199065000Y-109500000D02*
X199065000Y-90700000D01*
X187015000Y-109500000D02*
X187015000Y-90700000D01*
X199065000Y-109500000D02*
X187015000Y-109500000D01*
%TO.C,J7*%
X133390000Y-123170000D02*
X133390000Y-117520000D01*
X139190000Y-123170000D02*
X133390000Y-123170000D01*
X139190000Y-123120000D02*
X139190000Y-123170000D01*
X139190000Y-113070000D02*
X139190000Y-123120000D01*
X133390000Y-113070000D02*
X139190000Y-113070000D01*
X133390000Y-116170000D02*
X133390000Y-113070000D01*
X138190000Y-121920000D02*
X139190000Y-121920000D01*
X138190000Y-116820000D02*
X138190000Y-121920000D01*
X139190000Y-116820000D02*
X138190000Y-116820000D01*
%TO.C,J6*%
X154940000Y-101600000D02*
X153670000Y-102870000D01*
X154940000Y-90170000D02*
X154940000Y-101600000D01*
X149860000Y-90170000D02*
X154940000Y-90170000D01*
X149860000Y-102870000D02*
X149860000Y-90170000D01*
X153670000Y-102870000D02*
X149860000Y-102870000D01*
%TO.C,J5*%
X154940000Y-120650000D02*
X153670000Y-121920000D01*
X154940000Y-114300000D02*
X154940000Y-120650000D01*
X149860000Y-114300000D02*
X154940000Y-114300000D01*
X149860000Y-121920000D02*
X149860000Y-114300000D01*
X153670000Y-121920000D02*
X149860000Y-121920000D01*
%TO.C,J4*%
X128270000Y-136525000D02*
X127635000Y-137160000D01*
X128270000Y-127000000D02*
X128270000Y-136525000D01*
X125730000Y-127000000D02*
X128270000Y-127000000D01*
X125730000Y-137160000D02*
X125730000Y-127000000D01*
X127635000Y-137160000D02*
X125730000Y-137160000D01*
%TO.C,J3*%
X137160000Y-102870000D02*
X135890000Y-104140000D01*
X137160000Y-91440000D02*
X137160000Y-102870000D01*
X132080000Y-91440000D02*
X137160000Y-91440000D01*
X132080000Y-104140000D02*
X132080000Y-91440000D01*
X135890000Y-104140000D02*
X132080000Y-104140000D01*
%TO.C,J2*%
X132120000Y-146030000D02*
X132120000Y-140380000D01*
X137920000Y-146030000D02*
X132120000Y-146030000D01*
X137920000Y-145980000D02*
X137920000Y-146030000D01*
X137920000Y-135930000D02*
X137920000Y-145980000D01*
X132120000Y-135930000D02*
X137920000Y-135930000D01*
X132120000Y-139030000D02*
X132120000Y-135930000D01*
X136920000Y-144780000D02*
X137920000Y-144780000D01*
X136920000Y-139680000D02*
X136920000Y-144780000D01*
X137920000Y-139680000D02*
X136920000Y-139680000D01*
%TO.C,J1*%
X147360000Y-146030000D02*
X147360000Y-140380000D01*
X153160000Y-146030000D02*
X147360000Y-146030000D01*
X153160000Y-145980000D02*
X153160000Y-146030000D01*
X153160000Y-135930000D02*
X153160000Y-145980000D01*
X147360000Y-135930000D02*
X153160000Y-135930000D01*
X147360000Y-139030000D02*
X147360000Y-135930000D01*
X152160000Y-144780000D02*
X153160000Y-144780000D01*
X152160000Y-139680000D02*
X152160000Y-144780000D01*
X153160000Y-139680000D02*
X152160000Y-139680000D01*
%TO.C,A1*%
X180340000Y-101600000D02*
X180340000Y-144780000D01*
X163830000Y-101600000D02*
X180340000Y-101600000D01*
X162560000Y-102870000D02*
X163830000Y-101600000D01*
X162560000Y-144780000D02*
X162560000Y-102870000D01*
X180340000Y-144780000D02*
X162560000Y-144780000D01*
X167640000Y-147320000D02*
X167640000Y-137160000D01*
X175260000Y-147320000D02*
X167640000Y-147320000D01*
X175260000Y-137160000D02*
X175260000Y-147320000D01*
X167640000Y-137160000D02*
X175260000Y-137160000D01*
%TD*%
%TO.C,J8*%
D11*
X200492380Y-103742857D02*
X201301904Y-103742857D01*
X201397142Y-103695238D01*
X201444761Y-103647619D01*
X201492380Y-103552380D01*
X201492380Y-103361904D01*
X201444761Y-103266666D01*
X201397142Y-103219047D01*
X201301904Y-103171428D01*
X200492380Y-103171428D01*
X201444761Y-102742857D02*
X201492380Y-102600000D01*
X201492380Y-102361904D01*
X201444761Y-102266666D01*
X201397142Y-102219047D01*
X201301904Y-102171428D01*
X201206666Y-102171428D01*
X201111428Y-102219047D01*
X201063809Y-102266666D01*
X201016190Y-102361904D01*
X200968571Y-102552380D01*
X200920952Y-102647619D01*
X200873333Y-102695238D01*
X200778095Y-102742857D01*
X200682857Y-102742857D01*
X200587619Y-102695238D01*
X200540000Y-102647619D01*
X200492380Y-102552380D01*
X200492380Y-102314285D01*
X200540000Y-102171428D01*
X200968571Y-101409523D02*
X201016190Y-101266666D01*
X201063809Y-101219047D01*
X201159047Y-101171428D01*
X201301904Y-101171428D01*
X201397142Y-101219047D01*
X201444761Y-101266666D01*
X201492380Y-101361904D01*
X201492380Y-101742857D01*
X200492380Y-101742857D01*
X200492380Y-101409523D01*
X200540000Y-101314285D01*
X200587619Y-101266666D01*
X200682857Y-101219047D01*
X200778095Y-101219047D01*
X200873333Y-101266666D01*
X200920952Y-101314285D01*
X200968571Y-101409523D01*
X200968571Y-101742857D01*
X201587619Y-100980952D02*
X201587619Y-100219047D01*
X200968571Y-99647619D02*
X201016190Y-99504761D01*
X201063809Y-99457142D01*
X201159047Y-99409523D01*
X201301904Y-99409523D01*
X201397142Y-99457142D01*
X201444761Y-99504761D01*
X201492380Y-99600000D01*
X201492380Y-99980952D01*
X200492380Y-99980952D01*
X200492380Y-99647619D01*
X200540000Y-99552380D01*
X200587619Y-99504761D01*
X200682857Y-99457142D01*
X200778095Y-99457142D01*
X200873333Y-99504761D01*
X200920952Y-99552380D01*
X200968571Y-99647619D01*
X200968571Y-99980952D01*
X192706666Y-107052380D02*
X192706666Y-107766666D01*
X192659047Y-107909523D01*
X192563809Y-108004761D01*
X192420952Y-108052380D01*
X192325714Y-108052380D01*
X193325714Y-107480952D02*
X193230476Y-107433333D01*
X193182857Y-107385714D01*
X193135238Y-107290476D01*
X193135238Y-107242857D01*
X193182857Y-107147619D01*
X193230476Y-107100000D01*
X193325714Y-107052380D01*
X193516190Y-107052380D01*
X193611428Y-107100000D01*
X193659047Y-107147619D01*
X193706666Y-107242857D01*
X193706666Y-107290476D01*
X193659047Y-107385714D01*
X193611428Y-107433333D01*
X193516190Y-107480952D01*
X193325714Y-107480952D01*
X193230476Y-107528571D01*
X193182857Y-107576190D01*
X193135238Y-107671428D01*
X193135238Y-107861904D01*
X193182857Y-107957142D01*
X193230476Y-108004761D01*
X193325714Y-108052380D01*
X193516190Y-108052380D01*
X193611428Y-108004761D01*
X193659047Y-107957142D01*
X193706666Y-107861904D01*
X193706666Y-107671428D01*
X193659047Y-107576190D01*
X193611428Y-107528571D01*
X193516190Y-107480952D01*
%TO.C,J7*%
X139692380Y-118631904D02*
X140501904Y-118631904D01*
X140597142Y-118584285D01*
X140644761Y-118536666D01*
X140692380Y-118441428D01*
X140692380Y-118250952D01*
X140644761Y-118155714D01*
X140597142Y-118108095D01*
X140501904Y-118060476D01*
X139692380Y-118060476D01*
X140692380Y-117060476D02*
X140692380Y-117631904D01*
X140692380Y-117346190D02*
X139692380Y-117346190D01*
X139835238Y-117441428D01*
X139930476Y-117536666D01*
X139978095Y-117631904D01*
X133592380Y-120403333D02*
X134306666Y-120403333D01*
X134449523Y-120450952D01*
X134544761Y-120546190D01*
X134592380Y-120689047D01*
X134592380Y-120784285D01*
X133592380Y-120022380D02*
X133592380Y-119355714D01*
X134592380Y-119784285D01*
%TO.C,J6*%
X144757142Y-89467142D02*
X144709523Y-89514761D01*
X144566666Y-89562380D01*
X144471428Y-89562380D01*
X144328571Y-89514761D01*
X144233333Y-89419523D01*
X144185714Y-89324285D01*
X144138095Y-89133809D01*
X144138095Y-88990952D01*
X144185714Y-88800476D01*
X144233333Y-88705238D01*
X144328571Y-88610000D01*
X144471428Y-88562380D01*
X144566666Y-88562380D01*
X144709523Y-88610000D01*
X144757142Y-88657619D01*
X145328571Y-89562380D02*
X145233333Y-89514761D01*
X145185714Y-89467142D01*
X145138095Y-89371904D01*
X145138095Y-89086190D01*
X145185714Y-88990952D01*
X145233333Y-88943333D01*
X145328571Y-88895714D01*
X145471428Y-88895714D01*
X145566666Y-88943333D01*
X145614285Y-88990952D01*
X145661904Y-89086190D01*
X145661904Y-89371904D01*
X145614285Y-89467142D01*
X145566666Y-89514761D01*
X145471428Y-89562380D01*
X145328571Y-89562380D01*
X146090476Y-88895714D02*
X146090476Y-89562380D01*
X146090476Y-88990952D02*
X146138095Y-88943333D01*
X146233333Y-88895714D01*
X146376190Y-88895714D01*
X146471428Y-88943333D01*
X146519047Y-89038571D01*
X146519047Y-89562380D01*
X146995238Y-88895714D02*
X146995238Y-89562380D01*
X146995238Y-88990952D02*
X147042857Y-88943333D01*
X147138095Y-88895714D01*
X147280952Y-88895714D01*
X147376190Y-88943333D01*
X147423809Y-89038571D01*
X147423809Y-89562380D01*
X147661904Y-89657619D02*
X148423809Y-89657619D01*
X148852380Y-88562380D02*
X148947619Y-88562380D01*
X149042857Y-88610000D01*
X149090476Y-88657619D01*
X149138095Y-88752857D01*
X149185714Y-88943333D01*
X149185714Y-89181428D01*
X149138095Y-89371904D01*
X149090476Y-89467142D01*
X149042857Y-89514761D01*
X148947619Y-89562380D01*
X148852380Y-89562380D01*
X148757142Y-89514761D01*
X148709523Y-89467142D01*
X148661904Y-89371904D01*
X148614285Y-89181428D01*
X148614285Y-88943333D01*
X148661904Y-88752857D01*
X148709523Y-88657619D01*
X148757142Y-88610000D01*
X148852380Y-88562380D01*
X149566666Y-88657619D02*
X149614285Y-88610000D01*
X149709523Y-88562380D01*
X149947619Y-88562380D01*
X150042857Y-88610000D01*
X150090476Y-88657619D01*
X150138095Y-88752857D01*
X150138095Y-88848095D01*
X150090476Y-88990952D01*
X149519047Y-89562380D01*
X150138095Y-89562380D01*
X150471428Y-89562380D02*
X150995238Y-88895714D01*
X150471428Y-88895714D02*
X150995238Y-89562380D01*
X151566666Y-88562380D02*
X151661904Y-88562380D01*
X151757142Y-88610000D01*
X151804761Y-88657619D01*
X151852380Y-88752857D01*
X151900000Y-88943333D01*
X151900000Y-89181428D01*
X151852380Y-89371904D01*
X151804761Y-89467142D01*
X151757142Y-89514761D01*
X151661904Y-89562380D01*
X151566666Y-89562380D01*
X151471428Y-89514761D01*
X151423809Y-89467142D01*
X151376190Y-89371904D01*
X151328571Y-89181428D01*
X151328571Y-88943333D01*
X151376190Y-88752857D01*
X151423809Y-88657619D01*
X151471428Y-88610000D01*
X151566666Y-88562380D01*
X152804761Y-88562380D02*
X152328571Y-88562380D01*
X152280952Y-89038571D01*
X152328571Y-88990952D01*
X152423809Y-88943333D01*
X152661904Y-88943333D01*
X152757142Y-88990952D01*
X152804761Y-89038571D01*
X152852380Y-89133809D01*
X152852380Y-89371904D01*
X152804761Y-89467142D01*
X152757142Y-89514761D01*
X152661904Y-89562380D01*
X152423809Y-89562380D01*
X152328571Y-89514761D01*
X152280952Y-89467142D01*
X153042857Y-89657619D02*
X153804761Y-89657619D01*
X154233333Y-88562380D02*
X154423809Y-88562380D01*
X154519047Y-88610000D01*
X154614285Y-88705238D01*
X154661904Y-88895714D01*
X154661904Y-89229047D01*
X154614285Y-89419523D01*
X154519047Y-89514761D01*
X154423809Y-89562380D01*
X154233333Y-89562380D01*
X154138095Y-89514761D01*
X154042857Y-89419523D01*
X153995238Y-89229047D01*
X153995238Y-88895714D01*
X154042857Y-88705238D01*
X154138095Y-88610000D01*
X154233333Y-88562380D01*
X155519047Y-89562380D02*
X155519047Y-88562380D01*
X155519047Y-89514761D02*
X155423809Y-89562380D01*
X155233333Y-89562380D01*
X155138095Y-89514761D01*
X155090476Y-89467142D01*
X155042857Y-89371904D01*
X155042857Y-89086190D01*
X155090476Y-88990952D01*
X155138095Y-88943333D01*
X155233333Y-88895714D01*
X155423809Y-88895714D01*
X155519047Y-88943333D01*
X156423809Y-89562380D02*
X156423809Y-88562380D01*
X156423809Y-89514761D02*
X156328571Y-89562380D01*
X156138095Y-89562380D01*
X156042857Y-89514761D01*
X155995238Y-89467142D01*
X155947619Y-89371904D01*
X155947619Y-89086190D01*
X155995238Y-88990952D01*
X156042857Y-88943333D01*
X156138095Y-88895714D01*
X156328571Y-88895714D01*
X156423809Y-88943333D01*
X156661904Y-89657619D02*
X157423809Y-89657619D01*
X157661904Y-89038571D02*
X157995238Y-89038571D01*
X158138095Y-89562380D02*
X157661904Y-89562380D01*
X157661904Y-88562380D01*
X158138095Y-88562380D01*
X158471428Y-88895714D02*
X158709523Y-89562380D01*
X158947619Y-88895714D01*
X159709523Y-89514761D02*
X159614285Y-89562380D01*
X159423809Y-89562380D01*
X159328571Y-89514761D01*
X159280952Y-89419523D01*
X159280952Y-89038571D01*
X159328571Y-88943333D01*
X159423809Y-88895714D01*
X159614285Y-88895714D01*
X159709523Y-88943333D01*
X159757142Y-89038571D01*
X159757142Y-89133809D01*
X159280952Y-89229047D01*
X160185714Y-88895714D02*
X160185714Y-89562380D01*
X160185714Y-88990952D02*
X160233333Y-88943333D01*
X160328571Y-88895714D01*
X160471428Y-88895714D01*
X160566666Y-88943333D01*
X160614285Y-89038571D01*
X160614285Y-89562380D01*
X151852380Y-96853333D02*
X152566666Y-96853333D01*
X152709523Y-96900952D01*
X152804761Y-96996190D01*
X152852380Y-97139047D01*
X152852380Y-97234285D01*
X151852380Y-95948571D02*
X151852380Y-96139047D01*
X151900000Y-96234285D01*
X151947619Y-96281904D01*
X152090476Y-96377142D01*
X152280952Y-96424761D01*
X152661904Y-96424761D01*
X152757142Y-96377142D01*
X152804761Y-96329523D01*
X152852380Y-96234285D01*
X152852380Y-96043809D01*
X152804761Y-95948571D01*
X152757142Y-95900952D01*
X152661904Y-95853333D01*
X152423809Y-95853333D01*
X152328571Y-95900952D01*
X152280952Y-95948571D01*
X152233333Y-96043809D01*
X152233333Y-96234285D01*
X152280952Y-96329523D01*
X152328571Y-96377142D01*
X152423809Y-96424761D01*
%TO.C,J5*%
X144757142Y-113597142D02*
X144709523Y-113644761D01*
X144566666Y-113692380D01*
X144471428Y-113692380D01*
X144328571Y-113644761D01*
X144233333Y-113549523D01*
X144185714Y-113454285D01*
X144138095Y-113263809D01*
X144138095Y-113120952D01*
X144185714Y-112930476D01*
X144233333Y-112835238D01*
X144328571Y-112740000D01*
X144471428Y-112692380D01*
X144566666Y-112692380D01*
X144709523Y-112740000D01*
X144757142Y-112787619D01*
X145328571Y-113692380D02*
X145233333Y-113644761D01*
X145185714Y-113597142D01*
X145138095Y-113501904D01*
X145138095Y-113216190D01*
X145185714Y-113120952D01*
X145233333Y-113073333D01*
X145328571Y-113025714D01*
X145471428Y-113025714D01*
X145566666Y-113073333D01*
X145614285Y-113120952D01*
X145661904Y-113216190D01*
X145661904Y-113501904D01*
X145614285Y-113597142D01*
X145566666Y-113644761D01*
X145471428Y-113692380D01*
X145328571Y-113692380D01*
X146090476Y-113025714D02*
X146090476Y-113692380D01*
X146090476Y-113120952D02*
X146138095Y-113073333D01*
X146233333Y-113025714D01*
X146376190Y-113025714D01*
X146471428Y-113073333D01*
X146519047Y-113168571D01*
X146519047Y-113692380D01*
X146995238Y-113025714D02*
X146995238Y-113692380D01*
X146995238Y-113120952D02*
X147042857Y-113073333D01*
X147138095Y-113025714D01*
X147280952Y-113025714D01*
X147376190Y-113073333D01*
X147423809Y-113168571D01*
X147423809Y-113692380D01*
X147661904Y-113787619D02*
X148423809Y-113787619D01*
X148852380Y-112692380D02*
X148947619Y-112692380D01*
X149042857Y-112740000D01*
X149090476Y-112787619D01*
X149138095Y-112882857D01*
X149185714Y-113073333D01*
X149185714Y-113311428D01*
X149138095Y-113501904D01*
X149090476Y-113597142D01*
X149042857Y-113644761D01*
X148947619Y-113692380D01*
X148852380Y-113692380D01*
X148757142Y-113644761D01*
X148709523Y-113597142D01*
X148661904Y-113501904D01*
X148614285Y-113311428D01*
X148614285Y-113073333D01*
X148661904Y-112882857D01*
X148709523Y-112787619D01*
X148757142Y-112740000D01*
X148852380Y-112692380D01*
X149566666Y-112787619D02*
X149614285Y-112740000D01*
X149709523Y-112692380D01*
X149947619Y-112692380D01*
X150042857Y-112740000D01*
X150090476Y-112787619D01*
X150138095Y-112882857D01*
X150138095Y-112978095D01*
X150090476Y-113120952D01*
X149519047Y-113692380D01*
X150138095Y-113692380D01*
X150471428Y-113692380D02*
X150995238Y-113025714D01*
X150471428Y-113025714D02*
X150995238Y-113692380D01*
X151566666Y-112692380D02*
X151661904Y-112692380D01*
X151757142Y-112740000D01*
X151804761Y-112787619D01*
X151852380Y-112882857D01*
X151900000Y-113073333D01*
X151900000Y-113311428D01*
X151852380Y-113501904D01*
X151804761Y-113597142D01*
X151757142Y-113644761D01*
X151661904Y-113692380D01*
X151566666Y-113692380D01*
X151471428Y-113644761D01*
X151423809Y-113597142D01*
X151376190Y-113501904D01*
X151328571Y-113311428D01*
X151328571Y-113073333D01*
X151376190Y-112882857D01*
X151423809Y-112787619D01*
X151471428Y-112740000D01*
X151566666Y-112692380D01*
X152233333Y-112692380D02*
X152852380Y-112692380D01*
X152519047Y-113073333D01*
X152661904Y-113073333D01*
X152757142Y-113120952D01*
X152804761Y-113168571D01*
X152852380Y-113263809D01*
X152852380Y-113501904D01*
X152804761Y-113597142D01*
X152757142Y-113644761D01*
X152661904Y-113692380D01*
X152376190Y-113692380D01*
X152280952Y-113644761D01*
X152233333Y-113597142D01*
X153042857Y-113787619D02*
X153804761Y-113787619D01*
X154233333Y-112692380D02*
X154423809Y-112692380D01*
X154519047Y-112740000D01*
X154614285Y-112835238D01*
X154661904Y-113025714D01*
X154661904Y-113359047D01*
X154614285Y-113549523D01*
X154519047Y-113644761D01*
X154423809Y-113692380D01*
X154233333Y-113692380D01*
X154138095Y-113644761D01*
X154042857Y-113549523D01*
X153995238Y-113359047D01*
X153995238Y-113025714D01*
X154042857Y-112835238D01*
X154138095Y-112740000D01*
X154233333Y-112692380D01*
X155519047Y-113692380D02*
X155519047Y-112692380D01*
X155519047Y-113644761D02*
X155423809Y-113692380D01*
X155233333Y-113692380D01*
X155138095Y-113644761D01*
X155090476Y-113597142D01*
X155042857Y-113501904D01*
X155042857Y-113216190D01*
X155090476Y-113120952D01*
X155138095Y-113073333D01*
X155233333Y-113025714D01*
X155423809Y-113025714D01*
X155519047Y-113073333D01*
X156423809Y-113692380D02*
X156423809Y-112692380D01*
X156423809Y-113644761D02*
X156328571Y-113692380D01*
X156138095Y-113692380D01*
X156042857Y-113644761D01*
X155995238Y-113597142D01*
X155947619Y-113501904D01*
X155947619Y-113216190D01*
X155995238Y-113120952D01*
X156042857Y-113073333D01*
X156138095Y-113025714D01*
X156328571Y-113025714D01*
X156423809Y-113073333D01*
X156661904Y-113787619D02*
X157423809Y-113787619D01*
X157661904Y-113168571D02*
X157995238Y-113168571D01*
X158138095Y-113692380D02*
X157661904Y-113692380D01*
X157661904Y-112692380D01*
X158138095Y-112692380D01*
X158471428Y-113025714D02*
X158709523Y-113692380D01*
X158947619Y-113025714D01*
X159709523Y-113644761D02*
X159614285Y-113692380D01*
X159423809Y-113692380D01*
X159328571Y-113644761D01*
X159280952Y-113549523D01*
X159280952Y-113168571D01*
X159328571Y-113073333D01*
X159423809Y-113025714D01*
X159614285Y-113025714D01*
X159709523Y-113073333D01*
X159757142Y-113168571D01*
X159757142Y-113263809D01*
X159280952Y-113359047D01*
X160185714Y-113025714D02*
X160185714Y-113692380D01*
X160185714Y-113120952D02*
X160233333Y-113073333D01*
X160328571Y-113025714D01*
X160471428Y-113025714D01*
X160566666Y-113073333D01*
X160614285Y-113168571D01*
X160614285Y-113692380D01*
X151852380Y-118443333D02*
X152566666Y-118443333D01*
X152709523Y-118490952D01*
X152804761Y-118586190D01*
X152852380Y-118729047D01*
X152852380Y-118824285D01*
X151852380Y-117490952D02*
X151852380Y-117967142D01*
X152328571Y-118014761D01*
X152280952Y-117967142D01*
X152233333Y-117871904D01*
X152233333Y-117633809D01*
X152280952Y-117538571D01*
X152328571Y-117490952D01*
X152423809Y-117443333D01*
X152661904Y-117443333D01*
X152757142Y-117490952D01*
X152804761Y-117538571D01*
X152852380Y-117633809D01*
X152852380Y-117871904D01*
X152804761Y-117967142D01*
X152757142Y-118014761D01*
%TO.C,J4*%
X126238095Y-125392380D02*
X126238095Y-126201904D01*
X126285714Y-126297142D01*
X126333333Y-126344761D01*
X126428571Y-126392380D01*
X126619047Y-126392380D01*
X126714285Y-126344761D01*
X126761904Y-126297142D01*
X126809523Y-126201904D01*
X126809523Y-125392380D01*
X127238095Y-125487619D02*
X127285714Y-125440000D01*
X127380952Y-125392380D01*
X127619047Y-125392380D01*
X127714285Y-125440000D01*
X127761904Y-125487619D01*
X127809523Y-125582857D01*
X127809523Y-125678095D01*
X127761904Y-125820952D01*
X127190476Y-126392380D01*
X127809523Y-126392380D01*
X126452380Y-132413333D02*
X127166666Y-132413333D01*
X127309523Y-132460952D01*
X127404761Y-132556190D01*
X127452380Y-132699047D01*
X127452380Y-132794285D01*
X126785714Y-131508571D02*
X127452380Y-131508571D01*
X126404761Y-131746666D02*
X127119047Y-131984761D01*
X127119047Y-131365714D01*
%TO.C,J3*%
X126977142Y-90737142D02*
X126929523Y-90784761D01*
X126786666Y-90832380D01*
X126691428Y-90832380D01*
X126548571Y-90784761D01*
X126453333Y-90689523D01*
X126405714Y-90594285D01*
X126358095Y-90403809D01*
X126358095Y-90260952D01*
X126405714Y-90070476D01*
X126453333Y-89975238D01*
X126548571Y-89880000D01*
X126691428Y-89832380D01*
X126786666Y-89832380D01*
X126929523Y-89880000D01*
X126977142Y-89927619D01*
X127548571Y-90832380D02*
X127453333Y-90784761D01*
X127405714Y-90737142D01*
X127358095Y-90641904D01*
X127358095Y-90356190D01*
X127405714Y-90260952D01*
X127453333Y-90213333D01*
X127548571Y-90165714D01*
X127691428Y-90165714D01*
X127786666Y-90213333D01*
X127834285Y-90260952D01*
X127881904Y-90356190D01*
X127881904Y-90641904D01*
X127834285Y-90737142D01*
X127786666Y-90784761D01*
X127691428Y-90832380D01*
X127548571Y-90832380D01*
X128310476Y-90165714D02*
X128310476Y-90832380D01*
X128310476Y-90260952D02*
X128358095Y-90213333D01*
X128453333Y-90165714D01*
X128596190Y-90165714D01*
X128691428Y-90213333D01*
X128739047Y-90308571D01*
X128739047Y-90832380D01*
X129215238Y-90165714D02*
X129215238Y-90832380D01*
X129215238Y-90260952D02*
X129262857Y-90213333D01*
X129358095Y-90165714D01*
X129500952Y-90165714D01*
X129596190Y-90213333D01*
X129643809Y-90308571D01*
X129643809Y-90832380D01*
X129881904Y-90927619D02*
X130643809Y-90927619D01*
X131072380Y-89832380D02*
X131167619Y-89832380D01*
X131262857Y-89880000D01*
X131310476Y-89927619D01*
X131358095Y-90022857D01*
X131405714Y-90213333D01*
X131405714Y-90451428D01*
X131358095Y-90641904D01*
X131310476Y-90737142D01*
X131262857Y-90784761D01*
X131167619Y-90832380D01*
X131072380Y-90832380D01*
X130977142Y-90784761D01*
X130929523Y-90737142D01*
X130881904Y-90641904D01*
X130834285Y-90451428D01*
X130834285Y-90213333D01*
X130881904Y-90022857D01*
X130929523Y-89927619D01*
X130977142Y-89880000D01*
X131072380Y-89832380D01*
X131786666Y-89927619D02*
X131834285Y-89880000D01*
X131929523Y-89832380D01*
X132167619Y-89832380D01*
X132262857Y-89880000D01*
X132310476Y-89927619D01*
X132358095Y-90022857D01*
X132358095Y-90118095D01*
X132310476Y-90260952D01*
X131739047Y-90832380D01*
X132358095Y-90832380D01*
X132691428Y-90832380D02*
X133215238Y-90165714D01*
X132691428Y-90165714D02*
X133215238Y-90832380D01*
X133786666Y-89832380D02*
X133881904Y-89832380D01*
X133977142Y-89880000D01*
X134024761Y-89927619D01*
X134072380Y-90022857D01*
X134120000Y-90213333D01*
X134120000Y-90451428D01*
X134072380Y-90641904D01*
X134024761Y-90737142D01*
X133977142Y-90784761D01*
X133881904Y-90832380D01*
X133786666Y-90832380D01*
X133691428Y-90784761D01*
X133643809Y-90737142D01*
X133596190Y-90641904D01*
X133548571Y-90451428D01*
X133548571Y-90213333D01*
X133596190Y-90022857D01*
X133643809Y-89927619D01*
X133691428Y-89880000D01*
X133786666Y-89832380D01*
X135024761Y-89832380D02*
X134548571Y-89832380D01*
X134500952Y-90308571D01*
X134548571Y-90260952D01*
X134643809Y-90213333D01*
X134881904Y-90213333D01*
X134977142Y-90260952D01*
X135024761Y-90308571D01*
X135072380Y-90403809D01*
X135072380Y-90641904D01*
X135024761Y-90737142D01*
X134977142Y-90784761D01*
X134881904Y-90832380D01*
X134643809Y-90832380D01*
X134548571Y-90784761D01*
X134500952Y-90737142D01*
X135262857Y-90927619D02*
X136024761Y-90927619D01*
X136453333Y-89832380D02*
X136643809Y-89832380D01*
X136739047Y-89880000D01*
X136834285Y-89975238D01*
X136881904Y-90165714D01*
X136881904Y-90499047D01*
X136834285Y-90689523D01*
X136739047Y-90784761D01*
X136643809Y-90832380D01*
X136453333Y-90832380D01*
X136358095Y-90784761D01*
X136262857Y-90689523D01*
X136215238Y-90499047D01*
X136215238Y-90165714D01*
X136262857Y-89975238D01*
X136358095Y-89880000D01*
X136453333Y-89832380D01*
X137739047Y-90832380D02*
X137739047Y-89832380D01*
X137739047Y-90784761D02*
X137643809Y-90832380D01*
X137453333Y-90832380D01*
X137358095Y-90784761D01*
X137310476Y-90737142D01*
X137262857Y-90641904D01*
X137262857Y-90356190D01*
X137310476Y-90260952D01*
X137358095Y-90213333D01*
X137453333Y-90165714D01*
X137643809Y-90165714D01*
X137739047Y-90213333D01*
X138643809Y-90832380D02*
X138643809Y-89832380D01*
X138643809Y-90784761D02*
X138548571Y-90832380D01*
X138358095Y-90832380D01*
X138262857Y-90784761D01*
X138215238Y-90737142D01*
X138167619Y-90641904D01*
X138167619Y-90356190D01*
X138215238Y-90260952D01*
X138262857Y-90213333D01*
X138358095Y-90165714D01*
X138548571Y-90165714D01*
X138643809Y-90213333D01*
X138881904Y-90927619D02*
X139643809Y-90927619D01*
X139881904Y-90308571D02*
X140215238Y-90308571D01*
X140358095Y-90832380D02*
X139881904Y-90832380D01*
X139881904Y-89832380D01*
X140358095Y-89832380D01*
X140691428Y-90165714D02*
X140929523Y-90832380D01*
X141167619Y-90165714D01*
X141929523Y-90784761D02*
X141834285Y-90832380D01*
X141643809Y-90832380D01*
X141548571Y-90784761D01*
X141500952Y-90689523D01*
X141500952Y-90308571D01*
X141548571Y-90213333D01*
X141643809Y-90165714D01*
X141834285Y-90165714D01*
X141929523Y-90213333D01*
X141977142Y-90308571D01*
X141977142Y-90403809D01*
X141500952Y-90499047D01*
X142405714Y-90165714D02*
X142405714Y-90832380D01*
X142405714Y-90260952D02*
X142453333Y-90213333D01*
X142548571Y-90165714D01*
X142691428Y-90165714D01*
X142786666Y-90213333D01*
X142834285Y-90308571D01*
X142834285Y-90832380D01*
X134072380Y-98123333D02*
X134786666Y-98123333D01*
X134929523Y-98170952D01*
X135024761Y-98266190D01*
X135072380Y-98409047D01*
X135072380Y-98504285D01*
X134072380Y-97742380D02*
X134072380Y-97123333D01*
X134453333Y-97456666D01*
X134453333Y-97313809D01*
X134500952Y-97218571D01*
X134548571Y-97170952D01*
X134643809Y-97123333D01*
X134881904Y-97123333D01*
X134977142Y-97170952D01*
X135024761Y-97218571D01*
X135072380Y-97313809D01*
X135072380Y-97599523D01*
X135024761Y-97694761D01*
X134977142Y-97742380D01*
%TO.C,J2*%
X138422380Y-141491904D02*
X139231904Y-141491904D01*
X139327142Y-141444285D01*
X139374761Y-141396666D01*
X139422380Y-141301428D01*
X139422380Y-141110952D01*
X139374761Y-141015714D01*
X139327142Y-140968095D01*
X139231904Y-140920476D01*
X138422380Y-140920476D01*
X138422380Y-140539523D02*
X138422380Y-139920476D01*
X138803333Y-140253809D01*
X138803333Y-140110952D01*
X138850952Y-140015714D01*
X138898571Y-139968095D01*
X138993809Y-139920476D01*
X139231904Y-139920476D01*
X139327142Y-139968095D01*
X139374761Y-140015714D01*
X139422380Y-140110952D01*
X139422380Y-140396666D01*
X139374761Y-140491904D01*
X139327142Y-140539523D01*
X132322380Y-143263333D02*
X133036666Y-143263333D01*
X133179523Y-143310952D01*
X133274761Y-143406190D01*
X133322380Y-143549047D01*
X133322380Y-143644285D01*
X132417619Y-142834761D02*
X132370000Y-142787142D01*
X132322380Y-142691904D01*
X132322380Y-142453809D01*
X132370000Y-142358571D01*
X132417619Y-142310952D01*
X132512857Y-142263333D01*
X132608095Y-142263333D01*
X132750952Y-142310952D01*
X133322380Y-142882380D01*
X133322380Y-142263333D01*
%TO.C,J1*%
X153662380Y-141491904D02*
X154471904Y-141491904D01*
X154567142Y-141444285D01*
X154614761Y-141396666D01*
X154662380Y-141301428D01*
X154662380Y-141110952D01*
X154614761Y-141015714D01*
X154567142Y-140968095D01*
X154471904Y-140920476D01*
X153662380Y-140920476D01*
X153995714Y-140015714D02*
X154662380Y-140015714D01*
X153614761Y-140253809D02*
X154329047Y-140491904D01*
X154329047Y-139872857D01*
X147562380Y-143263333D02*
X148276666Y-143263333D01*
X148419523Y-143310952D01*
X148514761Y-143406190D01*
X148562380Y-143549047D01*
X148562380Y-143644285D01*
X148562380Y-142263333D02*
X148562380Y-142834761D01*
X148562380Y-142549047D02*
X147562380Y-142549047D01*
X147705238Y-142644285D01*
X147800476Y-142739523D01*
X147848095Y-142834761D01*
%TO.C,A1*%
X172886666Y-131198095D02*
X172886666Y-130721904D01*
X173172380Y-131293333D02*
X172172380Y-130960000D01*
X173172380Y-130626666D01*
X173172380Y-130293333D02*
X172505714Y-130293333D01*
X172696190Y-130293333D02*
X172600952Y-130245714D01*
X172553333Y-130198095D01*
X172505714Y-130102857D01*
X172505714Y-130007619D01*
X173172380Y-129245714D02*
X172172380Y-129245714D01*
X173124761Y-129245714D02*
X173172380Y-129340952D01*
X173172380Y-129531428D01*
X173124761Y-129626666D01*
X173077142Y-129674285D01*
X172981904Y-129721904D01*
X172696190Y-129721904D01*
X172600952Y-129674285D01*
X172553333Y-129626666D01*
X172505714Y-129531428D01*
X172505714Y-129340952D01*
X172553333Y-129245714D01*
X172505714Y-128340952D02*
X173172380Y-128340952D01*
X172505714Y-128769523D02*
X173029523Y-128769523D01*
X173124761Y-128721904D01*
X173172380Y-128626666D01*
X173172380Y-128483809D01*
X173124761Y-128388571D01*
X173077142Y-128340952D01*
X173172380Y-127864761D02*
X172505714Y-127864761D01*
X172172380Y-127864761D02*
X172220000Y-127912380D01*
X172267619Y-127864761D01*
X172220000Y-127817142D01*
X172172380Y-127864761D01*
X172267619Y-127864761D01*
X172505714Y-127388571D02*
X173172380Y-127388571D01*
X172600952Y-127388571D02*
X172553333Y-127340952D01*
X172505714Y-127245714D01*
X172505714Y-127102857D01*
X172553333Y-127007619D01*
X172648571Y-126960000D01*
X173172380Y-126960000D01*
X173172380Y-126340952D02*
X173124761Y-126436190D01*
X173077142Y-126483809D01*
X172981904Y-126531428D01*
X172696190Y-126531428D01*
X172600952Y-126483809D01*
X172553333Y-126436190D01*
X172505714Y-126340952D01*
X172505714Y-126198095D01*
X172553333Y-126102857D01*
X172600952Y-126055238D01*
X172696190Y-126007619D01*
X172981904Y-126007619D01*
X173077142Y-126055238D01*
X173124761Y-126102857D01*
X173172380Y-126198095D01*
X173172380Y-126340952D01*
X173267619Y-125817142D02*
X173267619Y-125055238D01*
X173172380Y-124817142D02*
X172172380Y-124817142D01*
X173172380Y-124245714D01*
X172172380Y-124245714D01*
X173172380Y-123340952D02*
X172648571Y-123340952D01*
X172553333Y-123388571D01*
X172505714Y-123483809D01*
X172505714Y-123674285D01*
X172553333Y-123769523D01*
X173124761Y-123340952D02*
X173172380Y-123436190D01*
X173172380Y-123674285D01*
X173124761Y-123769523D01*
X173029523Y-123817142D01*
X172934285Y-123817142D01*
X172839047Y-123769523D01*
X172791428Y-123674285D01*
X172791428Y-123436190D01*
X172743809Y-123340952D01*
X172505714Y-122864761D02*
X173172380Y-122864761D01*
X172600952Y-122864761D02*
X172553333Y-122817142D01*
X172505714Y-122721904D01*
X172505714Y-122579047D01*
X172553333Y-122483809D01*
X172648571Y-122436190D01*
X173172380Y-122436190D01*
X173172380Y-121817142D02*
X173124761Y-121912380D01*
X173077142Y-121960000D01*
X172981904Y-122007619D01*
X172696190Y-122007619D01*
X172600952Y-121960000D01*
X172553333Y-121912380D01*
X172505714Y-121817142D01*
X172505714Y-121674285D01*
X172553333Y-121579047D01*
X172600952Y-121531428D01*
X172696190Y-121483809D01*
X172981904Y-121483809D01*
X173077142Y-121531428D01*
X173124761Y-121579047D01*
X173172380Y-121674285D01*
X173172380Y-121817142D01*
X173267619Y-121293333D02*
X173267619Y-120531428D01*
X172505714Y-120388571D02*
X173172380Y-120150476D01*
X172505714Y-119912380D01*
X172172380Y-119626666D02*
X172172380Y-119007619D01*
X172553333Y-119340952D01*
X172553333Y-119198095D01*
X172600952Y-119102857D01*
X172648571Y-119055238D01*
X172743809Y-119007619D01*
X172981904Y-119007619D01*
X173077142Y-119055238D01*
X173124761Y-119102857D01*
X173172380Y-119198095D01*
X173172380Y-119483809D01*
X173124761Y-119579047D01*
X173077142Y-119626666D01*
X173077142Y-118579047D02*
X173124761Y-118531428D01*
X173172380Y-118579047D01*
X173124761Y-118626666D01*
X173077142Y-118579047D01*
X173172380Y-118579047D01*
X173172380Y-118198095D02*
X172505714Y-117674285D01*
X172505714Y-118198095D02*
X173172380Y-117674285D01*
X170346666Y-125174285D02*
X170346666Y-124698095D01*
X170632380Y-125269523D02*
X169632380Y-124936190D01*
X170632380Y-124602857D01*
X170632380Y-123745714D02*
X170632380Y-124317142D01*
X170632380Y-124031428D02*
X169632380Y-124031428D01*
X169775238Y-124126666D01*
X169870476Y-124221904D01*
X169918095Y-124317142D01*
%TD*%
M02*
