%FSLAX45Y45*%
G04 Gerber Fmt 4.5, Leading zero omitted, Abs format (unit mm)*
G04 Created by KiCad (PCBNEW 5.0.2-bee76a0~70~ubuntu14.04.1) date Fr 08 Okt 2021 16:36:24 CEST*
%MOMM*%
%LPD*%
G01*
G04 APERTURE LIST*
%ADD10C,0.200000*%
%ADD11C,0.300000*%
G04 APERTURE END LIST*
D10*
X20319000Y-15890000D02*
X20319000Y-8890000D01*
X12319000Y-15890000D02*
X20319000Y-15890000D01*
X20319000Y-8890000D02*
X12319000Y-8890000D01*
X12319000Y-15890000D02*
X12319000Y-8890000D01*
D10*
X18689000Y-10805000D02*
X18779000Y-10895000D01*
X18779000Y-10805000D02*
X18689000Y-10895000D01*
X18769000Y-10930000D02*
X18769000Y-10770000D01*
X18699000Y-10930000D02*
X18699000Y-10770000D01*
X18769000Y-10770000D02*
G75*
G03X18699000Y-10770000I-35000J0D01*
G01*
X18699000Y-10930000D02*
G75*
G03X18769000Y-10930000I35000J0D01*
G01*
X19829000Y-10805000D02*
X19919000Y-10895000D01*
X19919000Y-10805000D02*
X19829000Y-10895000D01*
X19909000Y-10930000D02*
X19909000Y-10770000D01*
X19839000Y-10930000D02*
X19839000Y-10770000D01*
X19909000Y-10770000D02*
G75*
G03X19839000Y-10770000I-35000J0D01*
G01*
X19839000Y-10930000D02*
G75*
G03X19909000Y-10930000I35000J0D01*
G01*
X15163000Y-11557000D02*
G75*
G03X15163000Y-11557000I-50000J0D01*
G01*
X15163000Y-11811000D02*
G75*
G03X15163000Y-11811000I-50000J0D01*
G01*
X15163000Y-12065000D02*
G75*
G03X15163000Y-12065000I-50000J0D01*
G01*
X15417000Y-11557000D02*
G75*
G03X15417000Y-11557000I-50000J0D01*
G01*
X15417000Y-11811000D02*
G75*
G03X15417000Y-11811000I-50000J0D01*
G01*
X15417000Y-12065000D02*
G75*
G03X15417000Y-12065000I-50000J0D01*
G01*
X12750000Y-12827000D02*
G75*
G03X12750000Y-12827000I-50000J0D01*
G01*
X12750000Y-13081000D02*
G75*
G03X12750000Y-13081000I-50000J0D01*
G01*
X12750000Y-13335000D02*
G75*
G03X12750000Y-13335000I-50000J0D01*
G01*
X12750000Y-13589000D02*
G75*
G03X12750000Y-13589000I-50000J0D01*
G01*
X16433000Y-10541000D02*
G75*
G03X16433000Y-10541000I-50000J0D01*
G01*
X16433000Y-10795000D02*
G75*
G03X16433000Y-10795000I-50000J0D01*
G01*
X16433000Y-11049000D02*
G75*
G03X16433000Y-11049000I-50000J0D01*
G01*
X16433000Y-11303000D02*
G75*
G03X16433000Y-11303000I-50000J0D01*
G01*
X16433000Y-11557000D02*
G75*
G03X16433000Y-11557000I-50000J0D01*
G01*
X16433000Y-11811000D02*
G75*
G03X16433000Y-11811000I-50000J0D01*
G01*
X16433000Y-12065000D02*
G75*
G03X16433000Y-12065000I-50000J0D01*
G01*
X16433000Y-12319000D02*
G75*
G03X16433000Y-12319000I-50000J0D01*
G01*
X16433000Y-12573000D02*
G75*
G03X16433000Y-12573000I-50000J0D01*
G01*
X16433000Y-12827000D02*
G75*
G03X16433000Y-12827000I-50000J0D01*
G01*
X16433000Y-13081000D02*
G75*
G03X16433000Y-13081000I-50000J0D01*
G01*
X16433000Y-13335000D02*
G75*
G03X16433000Y-13335000I-50000J0D01*
G01*
X16433000Y-13589000D02*
G75*
G03X16433000Y-13589000I-50000J0D01*
G01*
X16433000Y-13843000D02*
G75*
G03X16433000Y-13843000I-50000J0D01*
G01*
X16433000Y-14097000D02*
G75*
G03X16433000Y-14097000I-50000J0D01*
G01*
X17957000Y-10541000D02*
G75*
G03X17957000Y-10541000I-50000J0D01*
G01*
X17957000Y-10795000D02*
G75*
G03X17957000Y-10795000I-50000J0D01*
G01*
X17957000Y-11049000D02*
G75*
G03X17957000Y-11049000I-50000J0D01*
G01*
X17957000Y-11303000D02*
G75*
G03X17957000Y-11303000I-50000J0D01*
G01*
X17957000Y-11557000D02*
G75*
G03X17957000Y-11557000I-50000J0D01*
G01*
X17957000Y-11811000D02*
G75*
G03X17957000Y-11811000I-50000J0D01*
G01*
X17957000Y-12065000D02*
G75*
G03X17957000Y-12065000I-50000J0D01*
G01*
X17957000Y-12319000D02*
G75*
G03X17957000Y-12319000I-50000J0D01*
G01*
X17957000Y-12573000D02*
G75*
G03X17957000Y-12573000I-50000J0D01*
G01*
X17957000Y-12827000D02*
G75*
G03X17957000Y-12827000I-50000J0D01*
G01*
X17957000Y-13081000D02*
G75*
G03X17957000Y-13081000I-50000J0D01*
G01*
X17957000Y-13335000D02*
G75*
G03X17957000Y-13335000I-50000J0D01*
G01*
X17957000Y-13589000D02*
G75*
G03X17957000Y-13589000I-50000J0D01*
G01*
X17957000Y-13843000D02*
G75*
G03X17957000Y-13843000I-50000J0D01*
G01*
X17957000Y-14097000D02*
G75*
G03X17957000Y-14097000I-50000J0D01*
G01*
X13385000Y-9271000D02*
G75*
G03X13385000Y-9271000I-50000J0D01*
G01*
X13385000Y-9525000D02*
G75*
G03X13385000Y-9525000I-50000J0D01*
G01*
X13385000Y-9779000D02*
G75*
G03X13385000Y-9779000I-50000J0D01*
G01*
X13385000Y-10033000D02*
G75*
G03X13385000Y-10033000I-50000J0D01*
G01*
X13385000Y-10287000D02*
G75*
G03X13385000Y-10287000I-50000J0D01*
G01*
X13639000Y-9271000D02*
G75*
G03X13639000Y-9271000I-50000J0D01*
G01*
X13639000Y-9525000D02*
G75*
G03X13639000Y-9525000I-50000J0D01*
G01*
X13639000Y-9779000D02*
G75*
G03X13639000Y-9779000I-50000J0D01*
G01*
X13639000Y-10033000D02*
G75*
G03X13639000Y-10033000I-50000J0D01*
G01*
X13639000Y-10287000D02*
G75*
G03X13639000Y-10287000I-50000J0D01*
G01*
X15163000Y-9144000D02*
G75*
G03X15163000Y-9144000I-50000J0D01*
G01*
X15163000Y-9398000D02*
G75*
G03X15163000Y-9398000I-50000J0D01*
G01*
X15163000Y-9652000D02*
G75*
G03X15163000Y-9652000I-50000J0D01*
G01*
X15163000Y-9906000D02*
G75*
G03X15163000Y-9906000I-50000J0D01*
G01*
X15163000Y-10160000D02*
G75*
G03X15163000Y-10160000I-50000J0D01*
G01*
X15417000Y-9144000D02*
G75*
G03X15417000Y-9144000I-50000J0D01*
G01*
X15417000Y-9398000D02*
G75*
G03X15417000Y-9398000I-50000J0D01*
G01*
X15417000Y-9652000D02*
G75*
G03X15417000Y-9652000I-50000J0D01*
G01*
X15417000Y-9906000D02*
G75*
G03X15417000Y-9906000I-50000J0D01*
G01*
X15417000Y-10160000D02*
G75*
G03X15417000Y-10160000I-50000J0D01*
G01*
X13589000Y-11379000D02*
X13589000Y-11481000D01*
X13538000Y-11430000D02*
X13640000Y-11430000D01*
X13589000Y-11633000D02*
X13589000Y-11735000D01*
X13538000Y-11684000D02*
X13640000Y-11684000D01*
X13589000Y-11887000D02*
X13589000Y-11989000D01*
X13538000Y-11938000D02*
X13640000Y-11938000D01*
X13589000Y-12141000D02*
X13589000Y-12243000D01*
X13538000Y-12192000D02*
X13640000Y-12192000D01*
X14986000Y-13665000D02*
X14986000Y-13767000D01*
X14935000Y-13716000D02*
X15037000Y-13716000D01*
X14986000Y-13919000D02*
X14986000Y-14021000D01*
X14935000Y-13970000D02*
X15037000Y-13970000D01*
X14986000Y-14173000D02*
X14986000Y-14275000D01*
X14935000Y-14224000D02*
X15037000Y-14224000D01*
X14986000Y-14427000D02*
X14986000Y-14529000D01*
X14935000Y-14478000D02*
X15037000Y-14478000D01*
X13462000Y-13665000D02*
X13462000Y-13767000D01*
X13411000Y-13716000D02*
X13513000Y-13716000D01*
X13462000Y-13919000D02*
X13462000Y-14021000D01*
X13411000Y-13970000D02*
X13513000Y-13970000D01*
X13462000Y-14173000D02*
X13462000Y-14275000D01*
X13411000Y-14224000D02*
X13513000Y-14224000D01*
X13462000Y-14427000D02*
X13462000Y-14529000D01*
X13411000Y-14478000D02*
X13513000Y-14478000D01*
D11*
X12595428Y-16365714D02*
X12595428Y-16065714D01*
X12666857Y-16065714D01*
X12709714Y-16080000D01*
X12738286Y-16108571D01*
X12752571Y-16137143D01*
X12766857Y-16194286D01*
X12766857Y-16237143D01*
X12752571Y-16294286D01*
X12738286Y-16322857D01*
X12709714Y-16351429D01*
X12666857Y-16365714D01*
X12595428Y-16365714D01*
X12895428Y-16365714D02*
X12895428Y-16165714D01*
X12895428Y-16222857D02*
X12909714Y-16194286D01*
X12924000Y-16180000D01*
X12952571Y-16165714D01*
X12981143Y-16165714D01*
X13081143Y-16365714D02*
X13081143Y-16165714D01*
X13081143Y-16065714D02*
X13066857Y-16080000D01*
X13081143Y-16094286D01*
X13095428Y-16080000D01*
X13081143Y-16065714D01*
X13081143Y-16094286D01*
X13266857Y-16365714D02*
X13238286Y-16351429D01*
X13224000Y-16322857D01*
X13224000Y-16065714D01*
X13424000Y-16365714D02*
X13395428Y-16351429D01*
X13381143Y-16322857D01*
X13381143Y-16065714D01*
X13766857Y-16365714D02*
X13766857Y-16065714D01*
X13866857Y-16280000D01*
X13966857Y-16065714D01*
X13966857Y-16365714D01*
X14238286Y-16365714D02*
X14238286Y-16208571D01*
X14224000Y-16180000D01*
X14195428Y-16165714D01*
X14138286Y-16165714D01*
X14109714Y-16180000D01*
X14238286Y-16351429D02*
X14209714Y-16365714D01*
X14138286Y-16365714D01*
X14109714Y-16351429D01*
X14095428Y-16322857D01*
X14095428Y-16294286D01*
X14109714Y-16265714D01*
X14138286Y-16251429D01*
X14209714Y-16251429D01*
X14238286Y-16237143D01*
X14381143Y-16165714D02*
X14381143Y-16465714D01*
X14381143Y-16180000D02*
X14409714Y-16165714D01*
X14466857Y-16165714D01*
X14495428Y-16180000D01*
X14509714Y-16194286D01*
X14524000Y-16222857D01*
X14524000Y-16308571D01*
X14509714Y-16337143D01*
X14495428Y-16351429D01*
X14466857Y-16365714D01*
X14409714Y-16365714D01*
X14381143Y-16351429D01*
X14652571Y-16337143D02*
X14666857Y-16351429D01*
X14652571Y-16365714D01*
X14638286Y-16351429D01*
X14652571Y-16337143D01*
X14652571Y-16365714D01*
X14652571Y-16180000D02*
X14666857Y-16194286D01*
X14652571Y-16208571D01*
X14638286Y-16194286D01*
X14652571Y-16180000D01*
X14652571Y-16208571D01*
X12219000Y-16815000D02*
X12309000Y-16905000D01*
X12309000Y-16815000D02*
X12219000Y-16905000D01*
X12652571Y-16695714D02*
X12681143Y-16695714D01*
X12709714Y-16710000D01*
X12724000Y-16724286D01*
X12738286Y-16752857D01*
X12752571Y-16810000D01*
X12752571Y-16881429D01*
X12738286Y-16938572D01*
X12724000Y-16967143D01*
X12709714Y-16981429D01*
X12681143Y-16995714D01*
X12652571Y-16995714D01*
X12624000Y-16981429D01*
X12609714Y-16967143D01*
X12595428Y-16938572D01*
X12581143Y-16881429D01*
X12581143Y-16810000D01*
X12595428Y-16752857D01*
X12609714Y-16724286D01*
X12624000Y-16710000D01*
X12652571Y-16695714D01*
X12881143Y-16967143D02*
X12895428Y-16981429D01*
X12881143Y-16995714D01*
X12866857Y-16981429D01*
X12881143Y-16967143D01*
X12881143Y-16995714D01*
X13038286Y-16995714D02*
X13095428Y-16995714D01*
X13124000Y-16981429D01*
X13138286Y-16967143D01*
X13166857Y-16924286D01*
X13181143Y-16867143D01*
X13181143Y-16752857D01*
X13166857Y-16724286D01*
X13152571Y-16710000D01*
X13124000Y-16695714D01*
X13066857Y-16695714D01*
X13038286Y-16710000D01*
X13024000Y-16724286D01*
X13009714Y-16752857D01*
X13009714Y-16824286D01*
X13024000Y-16852857D01*
X13038286Y-16867143D01*
X13066857Y-16881429D01*
X13124000Y-16881429D01*
X13152571Y-16867143D01*
X13166857Y-16852857D01*
X13181143Y-16824286D01*
X13366857Y-16695714D02*
X13395428Y-16695714D01*
X13424000Y-16710000D01*
X13438286Y-16724286D01*
X13452571Y-16752857D01*
X13466857Y-16810000D01*
X13466857Y-16881429D01*
X13452571Y-16938572D01*
X13438286Y-16967143D01*
X13424000Y-16981429D01*
X13395428Y-16995714D01*
X13366857Y-16995714D01*
X13338286Y-16981429D01*
X13324000Y-16967143D01*
X13309714Y-16938572D01*
X13295428Y-16881429D01*
X13295428Y-16810000D01*
X13309714Y-16752857D01*
X13324000Y-16724286D01*
X13338286Y-16710000D01*
X13366857Y-16695714D01*
X13595428Y-16995714D02*
X13595428Y-16795714D01*
X13595428Y-16824286D02*
X13609714Y-16810000D01*
X13638286Y-16795714D01*
X13681143Y-16795714D01*
X13709714Y-16810000D01*
X13724000Y-16838572D01*
X13724000Y-16995714D01*
X13724000Y-16838572D02*
X13738286Y-16810000D01*
X13766857Y-16795714D01*
X13809714Y-16795714D01*
X13838286Y-16810000D01*
X13852571Y-16838572D01*
X13852571Y-16995714D01*
X13995428Y-16995714D02*
X13995428Y-16795714D01*
X13995428Y-16824286D02*
X14009714Y-16810000D01*
X14038286Y-16795714D01*
X14081143Y-16795714D01*
X14109714Y-16810000D01*
X14124000Y-16838572D01*
X14124000Y-16995714D01*
X14124000Y-16838572D02*
X14138286Y-16810000D01*
X14166857Y-16795714D01*
X14209714Y-16795714D01*
X14238286Y-16810000D01*
X14252571Y-16838572D01*
X14252571Y-16995714D01*
X14838286Y-16681429D02*
X14581143Y-17067143D01*
X15224000Y-16695714D02*
X15252571Y-16695714D01*
X15281143Y-16710000D01*
X15295428Y-16724286D01*
X15309714Y-16752857D01*
X15324000Y-16810000D01*
X15324000Y-16881429D01*
X15309714Y-16938572D01*
X15295428Y-16967143D01*
X15281143Y-16981429D01*
X15252571Y-16995714D01*
X15224000Y-16995714D01*
X15195428Y-16981429D01*
X15181143Y-16967143D01*
X15166857Y-16938572D01*
X15152571Y-16881429D01*
X15152571Y-16810000D01*
X15166857Y-16752857D01*
X15181143Y-16724286D01*
X15195428Y-16710000D01*
X15224000Y-16695714D01*
X15452571Y-16967143D02*
X15466857Y-16981429D01*
X15452571Y-16995714D01*
X15438286Y-16981429D01*
X15452571Y-16967143D01*
X15452571Y-16995714D01*
X15652571Y-16695714D02*
X15681143Y-16695714D01*
X15709714Y-16710000D01*
X15724000Y-16724286D01*
X15738286Y-16752857D01*
X15752571Y-16810000D01*
X15752571Y-16881429D01*
X15738286Y-16938572D01*
X15724000Y-16967143D01*
X15709714Y-16981429D01*
X15681143Y-16995714D01*
X15652571Y-16995714D01*
X15624000Y-16981429D01*
X15609714Y-16967143D01*
X15595428Y-16938572D01*
X15581143Y-16881429D01*
X15581143Y-16810000D01*
X15595428Y-16752857D01*
X15609714Y-16724286D01*
X15624000Y-16710000D01*
X15652571Y-16695714D01*
X15852571Y-16695714D02*
X16038286Y-16695714D01*
X15938286Y-16810000D01*
X15981143Y-16810000D01*
X16009714Y-16824286D01*
X16024000Y-16838572D01*
X16038286Y-16867143D01*
X16038286Y-16938572D01*
X16024000Y-16967143D01*
X16009714Y-16981429D01*
X15981143Y-16995714D01*
X15895428Y-16995714D01*
X15866857Y-16981429D01*
X15852571Y-16967143D01*
X16309714Y-16695714D02*
X16166857Y-16695714D01*
X16152571Y-16838572D01*
X16166857Y-16824286D01*
X16195428Y-16810000D01*
X16266857Y-16810000D01*
X16295428Y-16824286D01*
X16309714Y-16838572D01*
X16324000Y-16867143D01*
X16324000Y-16938572D01*
X16309714Y-16967143D01*
X16295428Y-16981429D01*
X16266857Y-16995714D01*
X16195428Y-16995714D01*
X16166857Y-16981429D01*
X16152571Y-16967143D01*
X16438286Y-16695714D02*
X16438286Y-16752857D01*
X16552571Y-16695714D02*
X16552571Y-16752857D01*
X16995428Y-17110000D02*
X16981143Y-17095714D01*
X16952571Y-17052857D01*
X16938286Y-17024286D01*
X16924000Y-16981429D01*
X16909714Y-16910000D01*
X16909714Y-16852857D01*
X16924000Y-16781429D01*
X16938286Y-16738571D01*
X16952571Y-16710000D01*
X16981143Y-16667143D01*
X16995428Y-16652857D01*
X17166857Y-16695714D02*
X17195428Y-16695714D01*
X17224000Y-16710000D01*
X17238286Y-16724286D01*
X17252571Y-16752857D01*
X17266857Y-16810000D01*
X17266857Y-16881429D01*
X17252571Y-16938572D01*
X17238286Y-16967143D01*
X17224000Y-16981429D01*
X17195428Y-16995714D01*
X17166857Y-16995714D01*
X17138286Y-16981429D01*
X17124000Y-16967143D01*
X17109714Y-16938572D01*
X17095428Y-16881429D01*
X17095428Y-16810000D01*
X17109714Y-16752857D01*
X17124000Y-16724286D01*
X17138286Y-16710000D01*
X17166857Y-16695714D01*
X17624000Y-16995714D02*
X17624000Y-16695714D01*
X17752571Y-16995714D02*
X17752571Y-16838572D01*
X17738286Y-16810000D01*
X17709714Y-16795714D01*
X17666857Y-16795714D01*
X17638286Y-16810000D01*
X17624000Y-16824286D01*
X17938286Y-16995714D02*
X17909714Y-16981429D01*
X17895428Y-16967143D01*
X17881143Y-16938572D01*
X17881143Y-16852857D01*
X17895428Y-16824286D01*
X17909714Y-16810000D01*
X17938286Y-16795714D01*
X17981143Y-16795714D01*
X18009714Y-16810000D01*
X18024000Y-16824286D01*
X18038286Y-16852857D01*
X18038286Y-16938572D01*
X18024000Y-16967143D01*
X18009714Y-16981429D01*
X17981143Y-16995714D01*
X17938286Y-16995714D01*
X18209714Y-16995714D02*
X18181143Y-16981429D01*
X18166857Y-16952857D01*
X18166857Y-16695714D01*
X18438286Y-16981429D02*
X18409714Y-16995714D01*
X18352571Y-16995714D01*
X18324000Y-16981429D01*
X18309714Y-16952857D01*
X18309714Y-16838572D01*
X18324000Y-16810000D01*
X18352571Y-16795714D01*
X18409714Y-16795714D01*
X18438286Y-16810000D01*
X18452571Y-16838572D01*
X18452571Y-16867143D01*
X18309714Y-16895714D01*
X18566857Y-16981429D02*
X18595428Y-16995714D01*
X18652571Y-16995714D01*
X18681143Y-16981429D01*
X18695428Y-16952857D01*
X18695428Y-16938572D01*
X18681143Y-16910000D01*
X18652571Y-16895714D01*
X18609714Y-16895714D01*
X18581143Y-16881429D01*
X18566857Y-16852857D01*
X18566857Y-16838572D01*
X18581143Y-16810000D01*
X18609714Y-16795714D01*
X18652571Y-16795714D01*
X18681143Y-16810000D01*
X19052571Y-16881429D02*
X19281143Y-16881429D01*
X19166857Y-16995714D02*
X19166857Y-16767143D01*
X19638286Y-16724286D02*
X19652571Y-16710000D01*
X19681143Y-16695714D01*
X19752571Y-16695714D01*
X19781143Y-16710000D01*
X19795428Y-16724286D01*
X19809714Y-16752857D01*
X19809714Y-16781429D01*
X19795428Y-16824286D01*
X19624000Y-16995714D01*
X19809714Y-16995714D01*
X20152571Y-16981429D02*
X20181143Y-16995714D01*
X20238286Y-16995714D01*
X20266857Y-16981429D01*
X20281143Y-16952857D01*
X20281143Y-16938572D01*
X20266857Y-16910000D01*
X20238286Y-16895714D01*
X20195428Y-16895714D01*
X20166857Y-16881429D01*
X20152571Y-16852857D01*
X20152571Y-16838572D01*
X20166857Y-16810000D01*
X20195428Y-16795714D01*
X20238286Y-16795714D01*
X20266857Y-16810000D01*
X20452571Y-16995714D02*
X20424000Y-16981429D01*
X20409714Y-16952857D01*
X20409714Y-16695714D01*
X20609714Y-16995714D02*
X20581143Y-16981429D01*
X20566857Y-16967143D01*
X20552571Y-16938572D01*
X20552571Y-16852857D01*
X20566857Y-16824286D01*
X20581143Y-16810000D01*
X20609714Y-16795714D01*
X20652571Y-16795714D01*
X20681143Y-16810000D01*
X20695428Y-16824286D01*
X20709714Y-16852857D01*
X20709714Y-16938572D01*
X20695428Y-16967143D01*
X20681143Y-16981429D01*
X20652571Y-16995714D01*
X20609714Y-16995714D01*
X20795428Y-16795714D02*
X20909714Y-16795714D01*
X20838286Y-16695714D02*
X20838286Y-16952857D01*
X20852571Y-16981429D01*
X20881143Y-16995714D01*
X20909714Y-16995714D01*
X20995428Y-16981429D02*
X21024000Y-16995714D01*
X21081143Y-16995714D01*
X21109714Y-16981429D01*
X21124000Y-16952857D01*
X21124000Y-16938572D01*
X21109714Y-16910000D01*
X21081143Y-16895714D01*
X21038286Y-16895714D01*
X21009714Y-16881429D01*
X20995428Y-16852857D01*
X20995428Y-16838572D01*
X21009714Y-16810000D01*
X21038286Y-16795714D01*
X21081143Y-16795714D01*
X21109714Y-16810000D01*
X21224000Y-17110000D02*
X21238286Y-17095714D01*
X21266857Y-17052857D01*
X21281143Y-17024286D01*
X21295428Y-16981429D01*
X21309714Y-16910000D01*
X21309714Y-16852857D01*
X21295428Y-16781429D01*
X21281143Y-16738571D01*
X21266857Y-16710000D01*
X21238286Y-16667143D01*
X21224000Y-16652857D01*
X12309000Y-17256000D02*
G75*
G03X12309000Y-17256000I-50000J0D01*
G01*
X12752571Y-17391714D02*
X12581143Y-17391714D01*
X12666857Y-17391714D02*
X12666857Y-17091714D01*
X12638286Y-17134572D01*
X12609714Y-17163143D01*
X12581143Y-17177429D01*
X12881143Y-17363143D02*
X12895428Y-17377429D01*
X12881143Y-17391714D01*
X12866857Y-17377429D01*
X12881143Y-17363143D01*
X12881143Y-17391714D01*
X13081143Y-17091714D02*
X13109714Y-17091714D01*
X13138286Y-17106000D01*
X13152571Y-17120286D01*
X13166857Y-17148857D01*
X13181143Y-17206000D01*
X13181143Y-17277429D01*
X13166857Y-17334572D01*
X13152571Y-17363143D01*
X13138286Y-17377429D01*
X13109714Y-17391714D01*
X13081143Y-17391714D01*
X13052571Y-17377429D01*
X13038286Y-17363143D01*
X13024000Y-17334572D01*
X13009714Y-17277429D01*
X13009714Y-17206000D01*
X13024000Y-17148857D01*
X13038286Y-17120286D01*
X13052571Y-17106000D01*
X13081143Y-17091714D01*
X13366857Y-17091714D02*
X13395428Y-17091714D01*
X13424000Y-17106000D01*
X13438286Y-17120286D01*
X13452571Y-17148857D01*
X13466857Y-17206000D01*
X13466857Y-17277429D01*
X13452571Y-17334572D01*
X13438286Y-17363143D01*
X13424000Y-17377429D01*
X13395428Y-17391714D01*
X13366857Y-17391714D01*
X13338286Y-17377429D01*
X13324000Y-17363143D01*
X13309714Y-17334572D01*
X13295428Y-17277429D01*
X13295428Y-17206000D01*
X13309714Y-17148857D01*
X13324000Y-17120286D01*
X13338286Y-17106000D01*
X13366857Y-17091714D01*
X13595428Y-17391714D02*
X13595428Y-17191714D01*
X13595428Y-17220286D02*
X13609714Y-17206000D01*
X13638286Y-17191714D01*
X13681143Y-17191714D01*
X13709714Y-17206000D01*
X13724000Y-17234572D01*
X13724000Y-17391714D01*
X13724000Y-17234572D02*
X13738286Y-17206000D01*
X13766857Y-17191714D01*
X13809714Y-17191714D01*
X13838286Y-17206000D01*
X13852571Y-17234572D01*
X13852571Y-17391714D01*
X13995428Y-17391714D02*
X13995428Y-17191714D01*
X13995428Y-17220286D02*
X14009714Y-17206000D01*
X14038286Y-17191714D01*
X14081143Y-17191714D01*
X14109714Y-17206000D01*
X14124000Y-17234572D01*
X14124000Y-17391714D01*
X14124000Y-17234572D02*
X14138286Y-17206000D01*
X14166857Y-17191714D01*
X14209714Y-17191714D01*
X14238286Y-17206000D01*
X14252571Y-17234572D01*
X14252571Y-17391714D01*
X14838286Y-17077429D02*
X14581143Y-17463143D01*
X15224000Y-17091714D02*
X15252571Y-17091714D01*
X15281143Y-17106000D01*
X15295428Y-17120286D01*
X15309714Y-17148857D01*
X15324000Y-17206000D01*
X15324000Y-17277429D01*
X15309714Y-17334572D01*
X15295428Y-17363143D01*
X15281143Y-17377429D01*
X15252571Y-17391714D01*
X15224000Y-17391714D01*
X15195428Y-17377429D01*
X15181143Y-17363143D01*
X15166857Y-17334572D01*
X15152571Y-17277429D01*
X15152571Y-17206000D01*
X15166857Y-17148857D01*
X15181143Y-17120286D01*
X15195428Y-17106000D01*
X15224000Y-17091714D01*
X15452571Y-17363143D02*
X15466857Y-17377429D01*
X15452571Y-17391714D01*
X15438286Y-17377429D01*
X15452571Y-17363143D01*
X15452571Y-17391714D01*
X15652571Y-17091714D02*
X15681143Y-17091714D01*
X15709714Y-17106000D01*
X15724000Y-17120286D01*
X15738286Y-17148857D01*
X15752571Y-17206000D01*
X15752571Y-17277429D01*
X15738286Y-17334572D01*
X15724000Y-17363143D01*
X15709714Y-17377429D01*
X15681143Y-17391714D01*
X15652571Y-17391714D01*
X15624000Y-17377429D01*
X15609714Y-17363143D01*
X15595428Y-17334572D01*
X15581143Y-17277429D01*
X15581143Y-17206000D01*
X15595428Y-17148857D01*
X15609714Y-17120286D01*
X15624000Y-17106000D01*
X15652571Y-17091714D01*
X15852571Y-17091714D02*
X16038286Y-17091714D01*
X15938286Y-17206000D01*
X15981143Y-17206000D01*
X16009714Y-17220286D01*
X16024000Y-17234572D01*
X16038286Y-17263143D01*
X16038286Y-17334572D01*
X16024000Y-17363143D01*
X16009714Y-17377429D01*
X15981143Y-17391714D01*
X15895428Y-17391714D01*
X15866857Y-17377429D01*
X15852571Y-17363143D01*
X16181143Y-17391714D02*
X16238286Y-17391714D01*
X16266857Y-17377429D01*
X16281143Y-17363143D01*
X16309714Y-17320286D01*
X16324000Y-17263143D01*
X16324000Y-17148857D01*
X16309714Y-17120286D01*
X16295428Y-17106000D01*
X16266857Y-17091714D01*
X16209714Y-17091714D01*
X16181143Y-17106000D01*
X16166857Y-17120286D01*
X16152571Y-17148857D01*
X16152571Y-17220286D01*
X16166857Y-17248857D01*
X16181143Y-17263143D01*
X16209714Y-17277429D01*
X16266857Y-17277429D01*
X16295428Y-17263143D01*
X16309714Y-17248857D01*
X16324000Y-17220286D01*
X16438286Y-17091714D02*
X16438286Y-17148857D01*
X16552571Y-17091714D02*
X16552571Y-17148857D01*
X16995428Y-17506000D02*
X16981143Y-17491714D01*
X16952571Y-17448857D01*
X16938286Y-17420286D01*
X16924000Y-17377429D01*
X16909714Y-17306000D01*
X16909714Y-17248857D01*
X16924000Y-17177429D01*
X16938286Y-17134572D01*
X16952571Y-17106000D01*
X16981143Y-17063143D01*
X16995428Y-17048857D01*
X17238286Y-17091714D02*
X17181143Y-17091714D01*
X17152571Y-17106000D01*
X17138286Y-17120286D01*
X17109714Y-17163143D01*
X17095428Y-17220286D01*
X17095428Y-17334572D01*
X17109714Y-17363143D01*
X17124000Y-17377429D01*
X17152571Y-17391714D01*
X17209714Y-17391714D01*
X17238286Y-17377429D01*
X17252571Y-17363143D01*
X17266857Y-17334572D01*
X17266857Y-17263143D01*
X17252571Y-17234572D01*
X17238286Y-17220286D01*
X17209714Y-17206000D01*
X17152571Y-17206000D01*
X17124000Y-17220286D01*
X17109714Y-17234572D01*
X17095428Y-17263143D01*
X17452571Y-17091714D02*
X17481143Y-17091714D01*
X17509714Y-17106000D01*
X17524000Y-17120286D01*
X17538286Y-17148857D01*
X17552571Y-17206000D01*
X17552571Y-17277429D01*
X17538286Y-17334572D01*
X17524000Y-17363143D01*
X17509714Y-17377429D01*
X17481143Y-17391714D01*
X17452571Y-17391714D01*
X17424000Y-17377429D01*
X17409714Y-17363143D01*
X17395428Y-17334572D01*
X17381143Y-17277429D01*
X17381143Y-17206000D01*
X17395428Y-17148857D01*
X17409714Y-17120286D01*
X17424000Y-17106000D01*
X17452571Y-17091714D01*
X17909714Y-17391714D02*
X17909714Y-17091714D01*
X18038286Y-17391714D02*
X18038286Y-17234572D01*
X18024000Y-17206000D01*
X17995428Y-17191714D01*
X17952571Y-17191714D01*
X17924000Y-17206000D01*
X17909714Y-17220286D01*
X18224000Y-17391714D02*
X18195428Y-17377429D01*
X18181143Y-17363143D01*
X18166857Y-17334572D01*
X18166857Y-17248857D01*
X18181143Y-17220286D01*
X18195428Y-17206000D01*
X18224000Y-17191714D01*
X18266857Y-17191714D01*
X18295428Y-17206000D01*
X18309714Y-17220286D01*
X18324000Y-17248857D01*
X18324000Y-17334572D01*
X18309714Y-17363143D01*
X18295428Y-17377429D01*
X18266857Y-17391714D01*
X18224000Y-17391714D01*
X18495428Y-17391714D02*
X18466857Y-17377429D01*
X18452571Y-17348857D01*
X18452571Y-17091714D01*
X18724000Y-17377429D02*
X18695428Y-17391714D01*
X18638286Y-17391714D01*
X18609714Y-17377429D01*
X18595428Y-17348857D01*
X18595428Y-17234572D01*
X18609714Y-17206000D01*
X18638286Y-17191714D01*
X18695428Y-17191714D01*
X18724000Y-17206000D01*
X18738286Y-17234572D01*
X18738286Y-17263143D01*
X18595428Y-17291714D01*
X18852571Y-17377429D02*
X18881143Y-17391714D01*
X18938286Y-17391714D01*
X18966857Y-17377429D01*
X18981143Y-17348857D01*
X18981143Y-17334572D01*
X18966857Y-17306000D01*
X18938286Y-17291714D01*
X18895428Y-17291714D01*
X18866857Y-17277429D01*
X18852571Y-17248857D01*
X18852571Y-17234572D01*
X18866857Y-17206000D01*
X18895428Y-17191714D01*
X18938286Y-17191714D01*
X18966857Y-17206000D01*
X19081143Y-17506000D02*
X19095428Y-17491714D01*
X19124000Y-17448857D01*
X19138286Y-17420286D01*
X19152571Y-17377429D01*
X19166857Y-17306000D01*
X19166857Y-17248857D01*
X19152571Y-17177429D01*
X19138286Y-17134572D01*
X19124000Y-17106000D01*
X19095428Y-17063143D01*
X19081143Y-17048857D01*
X12258000Y-17601000D02*
X12258000Y-17703000D01*
X12207000Y-17652000D02*
X12309000Y-17652000D01*
X12752571Y-17787714D02*
X12581143Y-17787714D01*
X12666857Y-17787714D02*
X12666857Y-17487714D01*
X12638286Y-17530572D01*
X12609714Y-17559143D01*
X12581143Y-17573429D01*
X12881143Y-17759143D02*
X12895428Y-17773429D01*
X12881143Y-17787714D01*
X12866857Y-17773429D01*
X12881143Y-17759143D01*
X12881143Y-17787714D01*
X13081143Y-17487714D02*
X13109714Y-17487714D01*
X13138286Y-17502000D01*
X13152571Y-17516286D01*
X13166857Y-17544857D01*
X13181143Y-17602000D01*
X13181143Y-17673429D01*
X13166857Y-17730572D01*
X13152571Y-17759143D01*
X13138286Y-17773429D01*
X13109714Y-17787714D01*
X13081143Y-17787714D01*
X13052571Y-17773429D01*
X13038286Y-17759143D01*
X13024000Y-17730572D01*
X13009714Y-17673429D01*
X13009714Y-17602000D01*
X13024000Y-17544857D01*
X13038286Y-17516286D01*
X13052571Y-17502000D01*
X13081143Y-17487714D01*
X13295428Y-17516286D02*
X13309714Y-17502000D01*
X13338286Y-17487714D01*
X13409714Y-17487714D01*
X13438286Y-17502000D01*
X13452571Y-17516286D01*
X13466857Y-17544857D01*
X13466857Y-17573429D01*
X13452571Y-17616286D01*
X13281143Y-17787714D01*
X13466857Y-17787714D01*
X13595428Y-17787714D02*
X13595428Y-17587714D01*
X13595428Y-17616286D02*
X13609714Y-17602000D01*
X13638286Y-17587714D01*
X13681143Y-17587714D01*
X13709714Y-17602000D01*
X13724000Y-17630572D01*
X13724000Y-17787714D01*
X13724000Y-17630572D02*
X13738286Y-17602000D01*
X13766857Y-17587714D01*
X13809714Y-17587714D01*
X13838286Y-17602000D01*
X13852571Y-17630572D01*
X13852571Y-17787714D01*
X13995428Y-17787714D02*
X13995428Y-17587714D01*
X13995428Y-17616286D02*
X14009714Y-17602000D01*
X14038286Y-17587714D01*
X14081143Y-17587714D01*
X14109714Y-17602000D01*
X14124000Y-17630572D01*
X14124000Y-17787714D01*
X14124000Y-17630572D02*
X14138286Y-17602000D01*
X14166857Y-17587714D01*
X14209714Y-17587714D01*
X14238286Y-17602000D01*
X14252571Y-17630572D01*
X14252571Y-17787714D01*
X14838286Y-17473429D02*
X14581143Y-17859143D01*
X15224000Y-17487714D02*
X15252571Y-17487714D01*
X15281143Y-17502000D01*
X15295428Y-17516286D01*
X15309714Y-17544857D01*
X15324000Y-17602000D01*
X15324000Y-17673429D01*
X15309714Y-17730572D01*
X15295428Y-17759143D01*
X15281143Y-17773429D01*
X15252571Y-17787714D01*
X15224000Y-17787714D01*
X15195428Y-17773429D01*
X15181143Y-17759143D01*
X15166857Y-17730572D01*
X15152571Y-17673429D01*
X15152571Y-17602000D01*
X15166857Y-17544857D01*
X15181143Y-17516286D01*
X15195428Y-17502000D01*
X15224000Y-17487714D01*
X15452571Y-17759143D02*
X15466857Y-17773429D01*
X15452571Y-17787714D01*
X15438286Y-17773429D01*
X15452571Y-17759143D01*
X15452571Y-17787714D01*
X15652571Y-17487714D02*
X15681143Y-17487714D01*
X15709714Y-17502000D01*
X15724000Y-17516286D01*
X15738286Y-17544857D01*
X15752571Y-17602000D01*
X15752571Y-17673429D01*
X15738286Y-17730572D01*
X15724000Y-17759143D01*
X15709714Y-17773429D01*
X15681143Y-17787714D01*
X15652571Y-17787714D01*
X15624000Y-17773429D01*
X15609714Y-17759143D01*
X15595428Y-17730572D01*
X15581143Y-17673429D01*
X15581143Y-17602000D01*
X15595428Y-17544857D01*
X15609714Y-17516286D01*
X15624000Y-17502000D01*
X15652571Y-17487714D01*
X16009714Y-17587714D02*
X16009714Y-17787714D01*
X15938286Y-17473429D02*
X15866857Y-17687714D01*
X16052571Y-17687714D01*
X16224000Y-17487714D02*
X16252571Y-17487714D01*
X16281143Y-17502000D01*
X16295428Y-17516286D01*
X16309714Y-17544857D01*
X16324000Y-17602000D01*
X16324000Y-17673429D01*
X16309714Y-17730572D01*
X16295428Y-17759143D01*
X16281143Y-17773429D01*
X16252571Y-17787714D01*
X16224000Y-17787714D01*
X16195428Y-17773429D01*
X16181143Y-17759143D01*
X16166857Y-17730572D01*
X16152571Y-17673429D01*
X16152571Y-17602000D01*
X16166857Y-17544857D01*
X16181143Y-17516286D01*
X16195428Y-17502000D01*
X16224000Y-17487714D01*
X16438286Y-17487714D02*
X16438286Y-17544857D01*
X16552571Y-17487714D02*
X16552571Y-17544857D01*
X16995428Y-17902000D02*
X16981143Y-17887714D01*
X16952571Y-17844857D01*
X16938286Y-17816286D01*
X16924000Y-17773429D01*
X16909714Y-17702000D01*
X16909714Y-17644857D01*
X16924000Y-17573429D01*
X16938286Y-17530572D01*
X16952571Y-17502000D01*
X16981143Y-17459143D01*
X16995428Y-17444857D01*
X17266857Y-17787714D02*
X17095428Y-17787714D01*
X17181143Y-17787714D02*
X17181143Y-17487714D01*
X17152571Y-17530572D01*
X17124000Y-17559143D01*
X17095428Y-17573429D01*
X17381143Y-17516286D02*
X17395428Y-17502000D01*
X17424000Y-17487714D01*
X17495428Y-17487714D01*
X17524000Y-17502000D01*
X17538286Y-17516286D01*
X17552571Y-17544857D01*
X17552571Y-17573429D01*
X17538286Y-17616286D01*
X17366857Y-17787714D01*
X17552571Y-17787714D01*
X17909714Y-17787714D02*
X17909714Y-17487714D01*
X18038286Y-17787714D02*
X18038286Y-17630572D01*
X18024000Y-17602000D01*
X17995428Y-17587714D01*
X17952571Y-17587714D01*
X17924000Y-17602000D01*
X17909714Y-17616286D01*
X18224000Y-17787714D02*
X18195428Y-17773429D01*
X18181143Y-17759143D01*
X18166857Y-17730572D01*
X18166857Y-17644857D01*
X18181143Y-17616286D01*
X18195428Y-17602000D01*
X18224000Y-17587714D01*
X18266857Y-17587714D01*
X18295428Y-17602000D01*
X18309714Y-17616286D01*
X18324000Y-17644857D01*
X18324000Y-17730572D01*
X18309714Y-17759143D01*
X18295428Y-17773429D01*
X18266857Y-17787714D01*
X18224000Y-17787714D01*
X18495428Y-17787714D02*
X18466857Y-17773429D01*
X18452571Y-17744857D01*
X18452571Y-17487714D01*
X18724000Y-17773429D02*
X18695428Y-17787714D01*
X18638286Y-17787714D01*
X18609714Y-17773429D01*
X18595428Y-17744857D01*
X18595428Y-17630572D01*
X18609714Y-17602000D01*
X18638286Y-17587714D01*
X18695428Y-17587714D01*
X18724000Y-17602000D01*
X18738286Y-17630572D01*
X18738286Y-17659143D01*
X18595428Y-17687714D01*
X18852571Y-17773429D02*
X18881143Y-17787714D01*
X18938286Y-17787714D01*
X18966857Y-17773429D01*
X18981143Y-17744857D01*
X18981143Y-17730572D01*
X18966857Y-17702000D01*
X18938286Y-17687714D01*
X18895428Y-17687714D01*
X18866857Y-17673429D01*
X18852571Y-17644857D01*
X18852571Y-17630572D01*
X18866857Y-17602000D01*
X18895428Y-17587714D01*
X18938286Y-17587714D01*
X18966857Y-17602000D01*
X19081143Y-17902000D02*
X19095428Y-17887714D01*
X19124000Y-17844857D01*
X19138286Y-17816286D01*
X19152571Y-17773429D01*
X19166857Y-17702000D01*
X19166857Y-17644857D01*
X19152571Y-17573429D01*
X19138286Y-17530572D01*
X19124000Y-17502000D01*
X19095428Y-17459143D01*
X19081143Y-17444857D01*
M02*
