%FSLAX45Y45*%
G04 Gerber Fmt 4.5, Leading zero omitted, Abs format (unit mm)*
G04 Created by KiCad (PCBNEW 5.0.2-bee76a0~70~ubuntu14.04.1) date Fr 08 Okt 2021 16:36:25 CEST*
%MOMM*%
%LPD*%
G01*
G04 APERTURE LIST*
%ADD10C,0.200000*%
%ADD11C,0.300000*%
G04 APERTURE END LIST*
D10*
X20319000Y-15890000D02*
X20319000Y-8890000D01*
X12319000Y-15890000D02*
X20319000Y-15890000D01*
X20319000Y-8890000D02*
X12319000Y-8890000D01*
X12319000Y-15890000D02*
X12319000Y-8890000D01*
D10*
X19019000Y-10795000D02*
X19129000Y-10905000D01*
X19129000Y-10795000D02*
X19019000Y-10905000D01*
X19479000Y-10795000D02*
X19589000Y-10905000D01*
X19589000Y-10795000D02*
X19479000Y-10905000D01*
X13318000Y-11629000D02*
X13428000Y-11739000D01*
X13428000Y-11629000D02*
X13318000Y-11739000D01*
X14715000Y-13915000D02*
X14825000Y-14025000D01*
X14825000Y-13915000D02*
X14715000Y-14025000D01*
X13191000Y-13915000D02*
X13301000Y-14025000D01*
X13301000Y-13915000D02*
X13191000Y-14025000D01*
D11*
X12595428Y-16365714D02*
X12595428Y-16065714D01*
X12666857Y-16065714D01*
X12709714Y-16080000D01*
X12738286Y-16108571D01*
X12752571Y-16137143D01*
X12766857Y-16194286D01*
X12766857Y-16237143D01*
X12752571Y-16294286D01*
X12738286Y-16322857D01*
X12709714Y-16351429D01*
X12666857Y-16365714D01*
X12595428Y-16365714D01*
X12895428Y-16365714D02*
X12895428Y-16165714D01*
X12895428Y-16222857D02*
X12909714Y-16194286D01*
X12924000Y-16180000D01*
X12952571Y-16165714D01*
X12981143Y-16165714D01*
X13081143Y-16365714D02*
X13081143Y-16165714D01*
X13081143Y-16065714D02*
X13066857Y-16080000D01*
X13081143Y-16094286D01*
X13095428Y-16080000D01*
X13081143Y-16065714D01*
X13081143Y-16094286D01*
X13266857Y-16365714D02*
X13238286Y-16351429D01*
X13224000Y-16322857D01*
X13224000Y-16065714D01*
X13424000Y-16365714D02*
X13395428Y-16351429D01*
X13381143Y-16322857D01*
X13381143Y-16065714D01*
X13766857Y-16365714D02*
X13766857Y-16065714D01*
X13866857Y-16280000D01*
X13966857Y-16065714D01*
X13966857Y-16365714D01*
X14238286Y-16365714D02*
X14238286Y-16208571D01*
X14224000Y-16180000D01*
X14195428Y-16165714D01*
X14138286Y-16165714D01*
X14109714Y-16180000D01*
X14238286Y-16351429D02*
X14209714Y-16365714D01*
X14138286Y-16365714D01*
X14109714Y-16351429D01*
X14095428Y-16322857D01*
X14095428Y-16294286D01*
X14109714Y-16265714D01*
X14138286Y-16251429D01*
X14209714Y-16251429D01*
X14238286Y-16237143D01*
X14381143Y-16165714D02*
X14381143Y-16465714D01*
X14381143Y-16180000D02*
X14409714Y-16165714D01*
X14466857Y-16165714D01*
X14495428Y-16180000D01*
X14509714Y-16194286D01*
X14524000Y-16222857D01*
X14524000Y-16308571D01*
X14509714Y-16337143D01*
X14495428Y-16351429D01*
X14466857Y-16365714D01*
X14409714Y-16365714D01*
X14381143Y-16351429D01*
X14652571Y-16337143D02*
X14666857Y-16351429D01*
X14652571Y-16365714D01*
X14638286Y-16351429D01*
X14652571Y-16337143D01*
X14652571Y-16365714D01*
X14652571Y-16180000D02*
X14666857Y-16194286D01*
X14652571Y-16208571D01*
X14638286Y-16194286D01*
X14652571Y-16180000D01*
X14652571Y-16208571D01*
X12199000Y-16805000D02*
X12309000Y-16915000D01*
X12309000Y-16805000D02*
X12199000Y-16915000D01*
X12752571Y-16995714D02*
X12581143Y-16995714D01*
X12666857Y-16995714D02*
X12666857Y-16695714D01*
X12638286Y-16738571D01*
X12609714Y-16767143D01*
X12581143Y-16781429D01*
X12881143Y-16967143D02*
X12895428Y-16981429D01*
X12881143Y-16995714D01*
X12866857Y-16981429D01*
X12881143Y-16967143D01*
X12881143Y-16995714D01*
X13181143Y-16995714D02*
X13009714Y-16995714D01*
X13095428Y-16995714D02*
X13095428Y-16695714D01*
X13066857Y-16738571D01*
X13038286Y-16767143D01*
X13009714Y-16781429D01*
X13366857Y-16695714D02*
X13395428Y-16695714D01*
X13424000Y-16710000D01*
X13438286Y-16724286D01*
X13452571Y-16752857D01*
X13466857Y-16810000D01*
X13466857Y-16881429D01*
X13452571Y-16938572D01*
X13438286Y-16967143D01*
X13424000Y-16981429D01*
X13395428Y-16995714D01*
X13366857Y-16995714D01*
X13338286Y-16981429D01*
X13324000Y-16967143D01*
X13309714Y-16938572D01*
X13295428Y-16881429D01*
X13295428Y-16810000D01*
X13309714Y-16752857D01*
X13324000Y-16724286D01*
X13338286Y-16710000D01*
X13366857Y-16695714D01*
X13595428Y-16995714D02*
X13595428Y-16795714D01*
X13595428Y-16824286D02*
X13609714Y-16810000D01*
X13638286Y-16795714D01*
X13681143Y-16795714D01*
X13709714Y-16810000D01*
X13724000Y-16838572D01*
X13724000Y-16995714D01*
X13724000Y-16838572D02*
X13738286Y-16810000D01*
X13766857Y-16795714D01*
X13809714Y-16795714D01*
X13838286Y-16810000D01*
X13852571Y-16838572D01*
X13852571Y-16995714D01*
X13995428Y-16995714D02*
X13995428Y-16795714D01*
X13995428Y-16824286D02*
X14009714Y-16810000D01*
X14038286Y-16795714D01*
X14081143Y-16795714D01*
X14109714Y-16810000D01*
X14124000Y-16838572D01*
X14124000Y-16995714D01*
X14124000Y-16838572D02*
X14138286Y-16810000D01*
X14166857Y-16795714D01*
X14209714Y-16795714D01*
X14238286Y-16810000D01*
X14252571Y-16838572D01*
X14252571Y-16995714D01*
X14838286Y-16681429D02*
X14581143Y-17067143D01*
X15224000Y-16695714D02*
X15252571Y-16695714D01*
X15281143Y-16710000D01*
X15295428Y-16724286D01*
X15309714Y-16752857D01*
X15324000Y-16810000D01*
X15324000Y-16881429D01*
X15309714Y-16938572D01*
X15295428Y-16967143D01*
X15281143Y-16981429D01*
X15252571Y-16995714D01*
X15224000Y-16995714D01*
X15195428Y-16981429D01*
X15181143Y-16967143D01*
X15166857Y-16938572D01*
X15152571Y-16881429D01*
X15152571Y-16810000D01*
X15166857Y-16752857D01*
X15181143Y-16724286D01*
X15195428Y-16710000D01*
X15224000Y-16695714D01*
X15452571Y-16967143D02*
X15466857Y-16981429D01*
X15452571Y-16995714D01*
X15438286Y-16981429D01*
X15452571Y-16967143D01*
X15452571Y-16995714D01*
X15652571Y-16695714D02*
X15681143Y-16695714D01*
X15709714Y-16710000D01*
X15724000Y-16724286D01*
X15738286Y-16752857D01*
X15752571Y-16810000D01*
X15752571Y-16881429D01*
X15738286Y-16938572D01*
X15724000Y-16967143D01*
X15709714Y-16981429D01*
X15681143Y-16995714D01*
X15652571Y-16995714D01*
X15624000Y-16981429D01*
X15609714Y-16967143D01*
X15595428Y-16938572D01*
X15581143Y-16881429D01*
X15581143Y-16810000D01*
X15595428Y-16752857D01*
X15609714Y-16724286D01*
X15624000Y-16710000D01*
X15652571Y-16695714D01*
X16009714Y-16795714D02*
X16009714Y-16995714D01*
X15938286Y-16681429D02*
X15866857Y-16895714D01*
X16052571Y-16895714D01*
X16138286Y-16695714D02*
X16324000Y-16695714D01*
X16224000Y-16810000D01*
X16266857Y-16810000D01*
X16295428Y-16824286D01*
X16309714Y-16838572D01*
X16324000Y-16867143D01*
X16324000Y-16938572D01*
X16309714Y-16967143D01*
X16295428Y-16981429D01*
X16266857Y-16995714D01*
X16181143Y-16995714D01*
X16152571Y-16981429D01*
X16138286Y-16967143D01*
X16438286Y-16695714D02*
X16438286Y-16752857D01*
X16552571Y-16695714D02*
X16552571Y-16752857D01*
X16995428Y-17110000D02*
X16981143Y-17095714D01*
X16952571Y-17052857D01*
X16938286Y-17024286D01*
X16924000Y-16981429D01*
X16909714Y-16910000D01*
X16909714Y-16852857D01*
X16924000Y-16781429D01*
X16938286Y-16738571D01*
X16952571Y-16710000D01*
X16981143Y-16667143D01*
X16995428Y-16652857D01*
X17252571Y-16695714D02*
X17109714Y-16695714D01*
X17095428Y-16838572D01*
X17109714Y-16824286D01*
X17138286Y-16810000D01*
X17209714Y-16810000D01*
X17238286Y-16824286D01*
X17252571Y-16838572D01*
X17266857Y-16867143D01*
X17266857Y-16938572D01*
X17252571Y-16967143D01*
X17238286Y-16981429D01*
X17209714Y-16995714D01*
X17138286Y-16995714D01*
X17109714Y-16981429D01*
X17095428Y-16967143D01*
X17624000Y-16995714D02*
X17624000Y-16695714D01*
X17752571Y-16995714D02*
X17752571Y-16838572D01*
X17738286Y-16810000D01*
X17709714Y-16795714D01*
X17666857Y-16795714D01*
X17638286Y-16810000D01*
X17624000Y-16824286D01*
X17938286Y-16995714D02*
X17909714Y-16981429D01*
X17895428Y-16967143D01*
X17881143Y-16938572D01*
X17881143Y-16852857D01*
X17895428Y-16824286D01*
X17909714Y-16810000D01*
X17938286Y-16795714D01*
X17981143Y-16795714D01*
X18009714Y-16810000D01*
X18024000Y-16824286D01*
X18038286Y-16852857D01*
X18038286Y-16938572D01*
X18024000Y-16967143D01*
X18009714Y-16981429D01*
X17981143Y-16995714D01*
X17938286Y-16995714D01*
X18209714Y-16995714D02*
X18181143Y-16981429D01*
X18166857Y-16952857D01*
X18166857Y-16695714D01*
X18438286Y-16981429D02*
X18409714Y-16995714D01*
X18352571Y-16995714D01*
X18324000Y-16981429D01*
X18309714Y-16952857D01*
X18309714Y-16838572D01*
X18324000Y-16810000D01*
X18352571Y-16795714D01*
X18409714Y-16795714D01*
X18438286Y-16810000D01*
X18452571Y-16838572D01*
X18452571Y-16867143D01*
X18309714Y-16895714D01*
X18566857Y-16981429D02*
X18595428Y-16995714D01*
X18652571Y-16995714D01*
X18681143Y-16981429D01*
X18695428Y-16952857D01*
X18695428Y-16938572D01*
X18681143Y-16910000D01*
X18652571Y-16895714D01*
X18609714Y-16895714D01*
X18581143Y-16881429D01*
X18566857Y-16852857D01*
X18566857Y-16838572D01*
X18581143Y-16810000D01*
X18609714Y-16795714D01*
X18652571Y-16795714D01*
X18681143Y-16810000D01*
X18795428Y-17110000D02*
X18809714Y-17095714D01*
X18838286Y-17052857D01*
X18852571Y-17024286D01*
X18866857Y-16981429D01*
X18881143Y-16910000D01*
X18881143Y-16852857D01*
X18866857Y-16781429D01*
X18852571Y-16738571D01*
X18838286Y-16710000D01*
X18809714Y-16667143D01*
X18795428Y-16652857D01*
X19338286Y-17110000D02*
X19324000Y-17095714D01*
X19295428Y-17052857D01*
X19281143Y-17024286D01*
X19266857Y-16981429D01*
X19252571Y-16910000D01*
X19252571Y-16852857D01*
X19266857Y-16781429D01*
X19281143Y-16738571D01*
X19295428Y-16710000D01*
X19324000Y-16667143D01*
X19338286Y-16652857D01*
X19452571Y-16795714D02*
X19452571Y-16995714D01*
X19452571Y-16824286D02*
X19466857Y-16810000D01*
X19495428Y-16795714D01*
X19538286Y-16795714D01*
X19566857Y-16810000D01*
X19581143Y-16838572D01*
X19581143Y-16995714D01*
X19766857Y-16995714D02*
X19738286Y-16981429D01*
X19724000Y-16967143D01*
X19709714Y-16938572D01*
X19709714Y-16852857D01*
X19724000Y-16824286D01*
X19738286Y-16810000D01*
X19766857Y-16795714D01*
X19809714Y-16795714D01*
X19838286Y-16810000D01*
X19852571Y-16824286D01*
X19866857Y-16852857D01*
X19866857Y-16938572D01*
X19852571Y-16967143D01*
X19838286Y-16981429D01*
X19809714Y-16995714D01*
X19766857Y-16995714D01*
X19952571Y-16795714D02*
X20066857Y-16795714D01*
X19995428Y-16695714D02*
X19995428Y-16952857D01*
X20009714Y-16981429D01*
X20038286Y-16995714D01*
X20066857Y-16995714D01*
X20395428Y-16795714D02*
X20395428Y-17095714D01*
X20395428Y-16810000D02*
X20424000Y-16795714D01*
X20481143Y-16795714D01*
X20509714Y-16810000D01*
X20524000Y-16824286D01*
X20538286Y-16852857D01*
X20538286Y-16938572D01*
X20524000Y-16967143D01*
X20509714Y-16981429D01*
X20481143Y-16995714D01*
X20424000Y-16995714D01*
X20395428Y-16981429D01*
X20709714Y-16995714D02*
X20681143Y-16981429D01*
X20666857Y-16952857D01*
X20666857Y-16695714D01*
X20952571Y-16995714D02*
X20952571Y-16838572D01*
X20938286Y-16810000D01*
X20909714Y-16795714D01*
X20852571Y-16795714D01*
X20824000Y-16810000D01*
X20952571Y-16981429D02*
X20924000Y-16995714D01*
X20852571Y-16995714D01*
X20824000Y-16981429D01*
X20809714Y-16952857D01*
X20809714Y-16924286D01*
X20824000Y-16895714D01*
X20852571Y-16881429D01*
X20924000Y-16881429D01*
X20952571Y-16867143D01*
X21052571Y-16795714D02*
X21166857Y-16795714D01*
X21095428Y-16695714D02*
X21095428Y-16952857D01*
X21109714Y-16981429D01*
X21138286Y-16995714D01*
X21166857Y-16995714D01*
X21381143Y-16981429D02*
X21352571Y-16995714D01*
X21295428Y-16995714D01*
X21266857Y-16981429D01*
X21252571Y-16952857D01*
X21252571Y-16838572D01*
X21266857Y-16810000D01*
X21295428Y-16795714D01*
X21352571Y-16795714D01*
X21381143Y-16810000D01*
X21395428Y-16838572D01*
X21395428Y-16867143D01*
X21252571Y-16895714D01*
X21652571Y-16995714D02*
X21652571Y-16695714D01*
X21652571Y-16981429D02*
X21624000Y-16995714D01*
X21566857Y-16995714D01*
X21538286Y-16981429D01*
X21524000Y-16967143D01*
X21509714Y-16938572D01*
X21509714Y-16852857D01*
X21524000Y-16824286D01*
X21538286Y-16810000D01*
X21566857Y-16795714D01*
X21624000Y-16795714D01*
X21652571Y-16810000D01*
X21766857Y-17110000D02*
X21781143Y-17095714D01*
X21809714Y-17052857D01*
X21824000Y-17024286D01*
X21838286Y-16981429D01*
X21852571Y-16910000D01*
X21852571Y-16852857D01*
X21838286Y-16781429D01*
X21824000Y-16738571D01*
X21809714Y-16710000D01*
X21781143Y-16667143D01*
X21766857Y-16652857D01*
M02*
