M48
;DRILL file {KiCad 5.0.2-bee76a0~70~ubuntu14.04.1} date Fr 08 Okt 2021 16:36:22 CEST
;FORMAT={-:-/ absolute / inch / decimal}
FMAT,2
INCH,TZ
T1C0.0354
T2C0.0394
T3C0.0402
%
G90
G05
T2
X5.95Y-4.55
X5.95Y-4.65
X5.95Y-4.75
X6.05Y-4.55
X6.05Y-4.65
X6.05Y-4.75
X5.Y-5.05
X5.Y-5.15
X5.Y-5.25
X5.Y-5.35
X6.45Y-4.15
X6.45Y-4.25
X6.45Y-4.35
X6.45Y-4.45
X6.45Y-4.55
X6.45Y-4.65
X6.45Y-4.75
X6.45Y-4.85
X6.45Y-4.95
X6.45Y-5.05
X6.45Y-5.15
X6.45Y-5.25
X6.45Y-5.35
X6.45Y-5.45
X6.45Y-5.55
X7.05Y-4.15
X7.05Y-4.25
X7.05Y-4.35
X7.05Y-4.45
X7.05Y-4.55
X7.05Y-4.65
X7.05Y-4.75
X7.05Y-4.85
X7.05Y-4.95
X7.05Y-5.05
X7.05Y-5.15
X7.05Y-5.25
X7.05Y-5.35
X7.05Y-5.45
X7.05Y-5.55
X5.25Y-3.65
X5.25Y-3.75
X5.25Y-3.85
X5.25Y-3.95
X5.25Y-4.05
X5.35Y-3.65
X5.35Y-3.75
X5.35Y-3.85
X5.35Y-3.95
X5.35Y-4.05
X5.95Y-3.6
X5.95Y-3.7
X5.95Y-3.8
X5.95Y-3.9
X5.95Y-4.
X6.05Y-3.6
X6.05Y-3.7
X6.05Y-3.8
X6.05Y-3.9
X6.05Y-4.
T3
X5.35Y-4.5
X5.35Y-4.6
X5.35Y-4.7
X5.35Y-4.8
X5.9Y-5.4
X5.9Y-5.5
X5.9Y-5.6
X5.9Y-5.7
X5.3Y-5.4
X5.3Y-5.5
X5.3Y-5.6
X5.3Y-5.7
T1
X7.3756Y-4.3031G85X7.3756Y-4.2402
G05
X7.8244Y-4.3031G85X7.8244Y-4.2402
G05
T0
M30
