%TF.GenerationSoftware,KiCad,Pcbnew,5.0.2-bee76a0~70~ubuntu14.04.1*%
%TF.CreationDate,2021-10-08T16:33:50+02:00*%
%TF.ProjectId,Literkarte Pong,4c697465-726b-4617-9274-6520506f6e67,rev?*%
%TF.SameCoordinates,Original*%
%TF.FileFunction,Copper,L1,Top*%
%TF.FilePolarity,Positive*%
%FSLAX46Y46*%
G04 Gerber Fmt 4.6, Leading zero omitted, Abs format (unit mm)*
G04 Created by KiCad (PCBNEW 5.0.2-bee76a0~70~ubuntu14.04.1) date Fr 08 Okt 2021 16:33:50 CEST*
%MOMM*%
%LPD*%
G01*
G04 APERTURE LIST*
%TA.AperFunction,ComponentPad*%
%ADD10O,1.900000X3.500000*%
%TD*%
%TA.AperFunction,SMDPad,CuDef*%
%ADD11R,1.100000X2.500000*%
%TD*%
%TA.AperFunction,ComponentPad*%
%ADD12O,2.030000X1.730000*%
%TD*%
%TA.AperFunction,ComponentPad*%
%ADD13R,2.030000X1.730000*%
%TD*%
%TA.AperFunction,ComponentPad*%
%ADD14O,1.700000X1.700000*%
%TD*%
%TA.AperFunction,ComponentPad*%
%ADD15R,1.700000X1.700000*%
%TD*%
%TA.AperFunction,ComponentPad*%
%ADD16O,1.600000X1.600000*%
%TD*%
%TA.AperFunction,ComponentPad*%
%ADD17R,1.600000X1.600000*%
%TD*%
%TA.AperFunction,Conductor*%
%ADD18C,0.250000*%
%TD*%
G04 APERTURE END LIST*
D10*
%TO.P,J8,5*%
%TO.N,Net-(J8-Pad5)*%
X198740000Y-108500000D03*
X187340000Y-108500000D03*
D11*
%TO.P,J8,4*%
%TO.N,GND*%
X196540000Y-111250000D03*
%TO.P,J8,1*%
%TO.N,VCC*%
X189540000Y-111250000D03*
%TO.P,J8,3*%
%TO.N,Net-(J8-Pad3)*%
X194040000Y-111250000D03*
%TO.P,J8,2*%
%TO.N,Net-(J8-Pad2)*%
X192040000Y-111250000D03*
%TD*%
D12*
%TO.P,J7,4*%
%TO.N,GND*%
X135890000Y-114300000D03*
%TO.P,J7,3*%
%TO.N,Net-(A1-Pad5)*%
X135890000Y-116840000D03*
%TO.P,J7,2*%
%TO.N,Net-(A1-Pad6)*%
X135890000Y-119380000D03*
D13*
%TO.P,J7,1*%
%TO.N,VCC*%
X135890000Y-121920000D03*
%TD*%
D14*
%TO.P,J6,10*%
%TO.N,VCC*%
X151130000Y-91440000D03*
%TO.P,J6,9*%
X153670000Y-91440000D03*
%TO.P,J6,8*%
%TO.N,Net-(A1-Pad2)*%
X151130000Y-93980000D03*
%TO.P,J6,7*%
X153670000Y-93980000D03*
%TO.P,J6,6*%
%TO.N,Net-(J3-Pad5)*%
X151130000Y-96520000D03*
%TO.P,J6,5*%
X153670000Y-96520000D03*
%TO.P,J6,4*%
%TO.N,Net-(J6-Pad3)*%
X151130000Y-99060000D03*
%TO.P,J6,3*%
X153670000Y-99060000D03*
%TO.P,J6,2*%
%TO.N,GND*%
X151130000Y-101600000D03*
D15*
%TO.P,J6,1*%
X153670000Y-101600000D03*
%TD*%
D14*
%TO.P,J5,6*%
%TO.N,GND*%
X151130000Y-115570000D03*
%TO.P,J5,5*%
X153670000Y-115570000D03*
%TO.P,J5,4*%
%TO.N,Net-(A1-Pad7)*%
X151130000Y-118110000D03*
%TO.P,J5,3*%
X153670000Y-118110000D03*
%TO.P,J5,2*%
%TO.N,VCC*%
X151130000Y-120650000D03*
D15*
%TO.P,J5,1*%
X153670000Y-120650000D03*
%TD*%
D14*
%TO.P,J4,4*%
%TO.N,GND*%
X127000000Y-128270000D03*
%TO.P,J4,3*%
%TO.N,Net-(A1-Pad8)*%
X127000000Y-130810000D03*
%TO.P,J4,2*%
%TO.N,Net-(A1-Pad9)*%
X127000000Y-133350000D03*
D15*
%TO.P,J4,1*%
%TO.N,VCC*%
X127000000Y-135890000D03*
%TD*%
D14*
%TO.P,J3,10*%
%TO.N,VCC*%
X133350000Y-92710000D03*
%TO.P,J3,9*%
X135890000Y-92710000D03*
%TO.P,J3,8*%
%TO.N,Net-(A1-Pad1)*%
X133350000Y-95250000D03*
%TO.P,J3,7*%
X135890000Y-95250000D03*
%TO.P,J3,6*%
%TO.N,Net-(J3-Pad5)*%
X133350000Y-97790000D03*
%TO.P,J3,5*%
X135890000Y-97790000D03*
%TO.P,J3,4*%
%TO.N,Net-(J3-Pad3)*%
X133350000Y-100330000D03*
%TO.P,J3,3*%
X135890000Y-100330000D03*
%TO.P,J3,2*%
%TO.N,GND*%
X133350000Y-102870000D03*
D15*
%TO.P,J3,1*%
X135890000Y-102870000D03*
%TD*%
D12*
%TO.P,J2,4*%
%TO.N,GND*%
X134620000Y-137160000D03*
%TO.P,J2,3*%
%TO.N,Net-(A1-Pad10)*%
X134620000Y-139700000D03*
%TO.P,J2,2*%
%TO.N,Net-(A1-Pad11)*%
X134620000Y-142240000D03*
D13*
%TO.P,J2,1*%
%TO.N,VCC*%
X134620000Y-144780000D03*
%TD*%
D12*
%TO.P,J1,4*%
%TO.N,GND*%
X149860000Y-137160000D03*
%TO.P,J1,3*%
%TO.N,Net-(A1-Pad13)*%
X149860000Y-139700000D03*
%TO.P,J1,2*%
%TO.N,Net-(A1-Pad12)*%
X149860000Y-142240000D03*
D13*
%TO.P,J1,1*%
%TO.N,VCC*%
X149860000Y-144780000D03*
%TD*%
D16*
%TO.P,A1,16*%
%TO.N,Net-(A1-Pad16)*%
X179070000Y-140970000D03*
%TO.P,A1,15*%
%TO.N,Net-(A1-Pad15)*%
X163830000Y-140970000D03*
%TO.P,A1,30*%
%TO.N,Net-(A1-Pad30)*%
X179070000Y-105410000D03*
%TO.P,A1,14*%
%TO.N,Net-(A1-Pad14)*%
X163830000Y-138430000D03*
%TO.P,A1,29*%
%TO.N,GND*%
X179070000Y-107950000D03*
%TO.P,A1,13*%
%TO.N,Net-(A1-Pad13)*%
X163830000Y-135890000D03*
%TO.P,A1,28*%
%TO.N,Net-(A1-Pad28)*%
X179070000Y-110490000D03*
%TO.P,A1,12*%
%TO.N,Net-(A1-Pad12)*%
X163830000Y-133350000D03*
%TO.P,A1,27*%
%TO.N,VCC*%
X179070000Y-113030000D03*
%TO.P,A1,11*%
%TO.N,Net-(A1-Pad11)*%
X163830000Y-130810000D03*
%TO.P,A1,26*%
%TO.N,Net-(A1-Pad26)*%
X179070000Y-115570000D03*
%TO.P,A1,10*%
%TO.N,Net-(A1-Pad10)*%
X163830000Y-128270000D03*
%TO.P,A1,25*%
%TO.N,Net-(A1-Pad25)*%
X179070000Y-118110000D03*
%TO.P,A1,9*%
%TO.N,Net-(A1-Pad9)*%
X163830000Y-125730000D03*
%TO.P,A1,24*%
%TO.N,Net-(A1-Pad24)*%
X179070000Y-120650000D03*
%TO.P,A1,8*%
%TO.N,Net-(A1-Pad8)*%
X163830000Y-123190000D03*
%TO.P,A1,23*%
%TO.N,Net-(A1-Pad23)*%
X179070000Y-123190000D03*
%TO.P,A1,7*%
%TO.N,Net-(A1-Pad7)*%
X163830000Y-120650000D03*
%TO.P,A1,22*%
%TO.N,Net-(A1-Pad22)*%
X179070000Y-125730000D03*
%TO.P,A1,6*%
%TO.N,Net-(A1-Pad6)*%
X163830000Y-118110000D03*
%TO.P,A1,21*%
%TO.N,Net-(A1-Pad21)*%
X179070000Y-128270000D03*
%TO.P,A1,5*%
%TO.N,Net-(A1-Pad5)*%
X163830000Y-115570000D03*
%TO.P,A1,20*%
%TO.N,Net-(A1-Pad20)*%
X179070000Y-130810000D03*
%TO.P,A1,4*%
%TO.N,Net-(A1-Pad4)*%
X163830000Y-113030000D03*
%TO.P,A1,19*%
%TO.N,Net-(A1-Pad19)*%
X179070000Y-133350000D03*
%TO.P,A1,3*%
%TO.N,Net-(A1-Pad3)*%
X163830000Y-110490000D03*
%TO.P,A1,18*%
%TO.N,Net-(A1-Pad18)*%
X179070000Y-135890000D03*
%TO.P,A1,2*%
%TO.N,Net-(A1-Pad2)*%
X163830000Y-107950000D03*
%TO.P,A1,17*%
%TO.N,Net-(A1-Pad17)*%
X179070000Y-138430000D03*
D17*
%TO.P,A1,1*%
%TO.N,Net-(A1-Pad1)*%
X163830000Y-105410000D03*
%TD*%
D18*
%TO.N,GND*%
X135890000Y-102870000D02*
X137065300Y-102870000D01*
X151130000Y-101600000D02*
X138335300Y-101600000D01*
X138335300Y-101600000D02*
X137065300Y-102870000D01*
X153670000Y-101600000D02*
X151130000Y-101600000D01*
X179070000Y-107950000D02*
X180195300Y-107950000D01*
X149860000Y-137160000D02*
X134620000Y-137160000D01*
X153670000Y-115570000D02*
X151130000Y-115570000D01*
X135890000Y-102870000D02*
X133350000Y-102870000D01*
X180595010Y-106424990D02*
X179070000Y-107950000D01*
X187868126Y-106424990D02*
X180595010Y-106424990D01*
X188615010Y-107670012D02*
X188615010Y-107171874D01*
X188615010Y-107171874D02*
X187868126Y-106424990D01*
X196540000Y-110550000D02*
X196540000Y-111250000D01*
X195664700Y-109674700D02*
X196839699Y-110849699D01*
X190619698Y-109674700D02*
X195664700Y-109674700D01*
X189230000Y-108285002D02*
X190319999Y-109375001D01*
X190619698Y-109674700D02*
X189230000Y-108285002D01*
X189230000Y-108285002D02*
X188615010Y-107670012D01*
%TO.N,Net-(A1-Pad12)*%
X163830000Y-133350000D02*
X162704700Y-133350000D01*
X162704700Y-133350000D02*
X153814700Y-142240000D01*
X153814700Y-142240000D02*
X149860000Y-142240000D01*
%TO.N,VCC*%
X151130000Y-120650000D02*
X136862400Y-120650000D01*
X136862400Y-120650000D02*
X135890000Y-121622400D01*
X127000000Y-135890000D02*
X127000000Y-134714700D01*
X135890000Y-121622400D02*
X127972400Y-129540000D01*
X127972400Y-129540000D02*
X126559100Y-129540000D01*
X126559100Y-129540000D02*
X125824700Y-130274400D01*
X125824700Y-130274400D02*
X125824700Y-133906800D01*
X125824700Y-133906800D02*
X126632600Y-134714700D01*
X126632600Y-134714700D02*
X127000000Y-134714700D01*
X135890000Y-121920000D02*
X135890000Y-121622400D01*
X149860000Y-144780000D02*
X148519700Y-144780000D01*
X134620000Y-144184800D02*
X147924500Y-144184800D01*
X147924500Y-144184800D02*
X148519700Y-144780000D01*
X134620000Y-144184800D02*
X134620000Y-143589700D01*
X134620000Y-144780000D02*
X134620000Y-144184800D01*
X127000000Y-135890000D02*
X127000000Y-137065300D01*
X127000000Y-137065300D02*
X133524400Y-143589700D01*
X133524400Y-143589700D02*
X134620000Y-143589700D01*
X153670000Y-120650000D02*
X161885400Y-120650000D01*
X161885400Y-120650000D02*
X163155400Y-119380000D01*
X163155400Y-119380000D02*
X164167800Y-119380000D01*
X164167800Y-119380000D02*
X169392500Y-114155300D01*
X169392500Y-114155300D02*
X179070000Y-114155300D01*
X151130000Y-91440000D02*
X149954700Y-91440000D01*
X135890000Y-92710000D02*
X148684700Y-92710000D01*
X148684700Y-92710000D02*
X149954700Y-91440000D01*
X133350000Y-92710000D02*
X135890000Y-92710000D01*
X179070000Y-113030000D02*
X179070000Y-114155300D01*
X183944500Y-111250000D02*
X189540000Y-111250000D01*
X181039200Y-114155300D02*
X183944500Y-111250000D01*
X179070000Y-114155300D02*
X181039200Y-114155300D01*
%TO.N,Net-(A1-Pad11)*%
X162704700Y-130810000D02*
X152465000Y-141049700D01*
X152465000Y-141049700D02*
X134620000Y-141049700D01*
X134620000Y-142240000D02*
X134620000Y-141049700D01*
X163830000Y-130810000D02*
X162704700Y-130810000D01*
%TO.N,Net-(A1-Pad10)*%
X134620000Y-139700000D02*
X134620000Y-138509700D01*
X163830000Y-128270000D02*
X162704700Y-128270000D01*
X162704700Y-128270000D02*
X152465000Y-138509700D01*
X152465000Y-138509700D02*
X134620000Y-138509700D01*
%TO.N,Net-(A1-Pad9)*%
X162704700Y-125730000D02*
X155084700Y-133350000D01*
X155084700Y-133350000D02*
X127000000Y-133350000D01*
X163830000Y-125730000D02*
X162704700Y-125730000D01*
%TO.N,Net-(A1-Pad8)*%
X127000000Y-130810000D02*
X128175300Y-130810000D01*
X163830000Y-123190000D02*
X135795300Y-123190000D01*
X135795300Y-123190000D02*
X128175300Y-130810000D01*
%TO.N,Net-(A1-Pad7)*%
X153670000Y-118110000D02*
X151130000Y-118110000D01*
%TO.N,Net-(A1-Pad6)*%
X163830000Y-118110000D02*
X162704700Y-118110000D01*
X162704700Y-118110000D02*
X161434700Y-119380000D01*
X161434700Y-119380000D02*
X135890000Y-119380000D01*
%TO.N,Net-(A1-Pad5)*%
X163830000Y-115570000D02*
X162704700Y-115570000D01*
X162704700Y-115570000D02*
X161434700Y-116840000D01*
X161434700Y-116840000D02*
X135890000Y-116840000D01*
%TO.N,Net-(A1-Pad2)*%
X153670000Y-93980000D02*
X151130000Y-93980000D01*
%TO.N,Net-(A1-Pad1)*%
X135890000Y-95250000D02*
X133350000Y-95250000D01*
X163830000Y-104284700D02*
X154795300Y-95250000D01*
X154795300Y-95250000D02*
X135890000Y-95250000D01*
X163830000Y-105410000D02*
X163830000Y-104284700D01*
%TO.N,Net-(J3-Pad5)*%
X153670000Y-96520000D02*
X151130000Y-96520000D01*
X151130000Y-96520000D02*
X149954700Y-96520000D01*
X135890000Y-97790000D02*
X148684700Y-97790000D01*
X148684700Y-97790000D02*
X149954700Y-96520000D01*
X133350000Y-97790000D02*
X135890000Y-97790000D01*
%TO.N,Net-(J3-Pad3)*%
X135890000Y-100330000D02*
X133350000Y-100330000D01*
%TO.N,Net-(J6-Pad3)*%
X153670000Y-99060000D02*
X151130000Y-99060000D01*
%TD*%
M02*
