%TF.GenerationSoftware,KiCad,Pcbnew,5.0.2-bee76a0~70~ubuntu14.04.1*%
%TF.CreationDate,2021-10-08T16:33:50+02:00*%
%TF.ProjectId,Literkarte Pong,4c697465-726b-4617-9274-6520506f6e67,rev?*%
%TF.SameCoordinates,Original*%
%TF.FileFunction,Legend,Top*%
%TF.FilePolarity,Positive*%
%FSLAX46Y46*%
G04 Gerber Fmt 4.6, Leading zero omitted, Abs format (unit mm)*
G04 Created by KiCad (PCBNEW 5.0.2-bee76a0~70~ubuntu14.04.1) date Fr 08 Okt 2021 16:33:50 CEST*
%MOMM*%
%LPD*%
G01*
G04 APERTURE LIST*
%ADD10C,0.120000*%
%ADD11C,0.150000*%
G04 APERTURE END LIST*
D10*
%TO.C,J8*%
X188640000Y-109620000D02*
X188640000Y-110375000D01*
X199185000Y-106450000D02*
X199185000Y-105400000D01*
X186895000Y-106450000D02*
X186895000Y-105400000D01*
X188640000Y-109620000D02*
X197440000Y-109620000D01*
%TO.C,J7*%
X138180000Y-116840000D02*
X139190000Y-116840000D01*
X138180000Y-121920000D02*
X138180000Y-116840000D01*
X139190000Y-121920000D02*
X138180000Y-121920000D01*
X139290000Y-123270000D02*
X133290000Y-123270000D01*
X139290000Y-112970000D02*
X139290000Y-123270000D01*
X133340000Y-112970000D02*
X139290000Y-112970000D01*
X133340000Y-116170000D02*
X133340000Y-112970000D01*
X133290000Y-123270000D02*
X133290000Y-117520000D01*
%TO.C,J6*%
X155000000Y-102930000D02*
X153670000Y-102930000D01*
X155000000Y-101600000D02*
X155000000Y-102930000D01*
X152400000Y-102930000D02*
X149800000Y-102930000D01*
X152400000Y-100330000D02*
X152400000Y-102930000D01*
X155000000Y-100330000D02*
X152400000Y-100330000D01*
X149800000Y-102930000D02*
X149800000Y-90110000D01*
X155000000Y-100330000D02*
X155000000Y-90110000D01*
X155000000Y-90110000D02*
X149800000Y-90110000D01*
%TO.C,J5*%
X155000000Y-121980000D02*
X153670000Y-121980000D01*
X155000000Y-120650000D02*
X155000000Y-121980000D01*
X152400000Y-121980000D02*
X149800000Y-121980000D01*
X152400000Y-119380000D02*
X152400000Y-121980000D01*
X155000000Y-119380000D02*
X152400000Y-119380000D01*
X149800000Y-121980000D02*
X149800000Y-114240000D01*
X155000000Y-119380000D02*
X155000000Y-114240000D01*
X155000000Y-114240000D02*
X149800000Y-114240000D01*
%TO.C,J4*%
X128330000Y-137220000D02*
X127000000Y-137220000D01*
X128330000Y-135890000D02*
X128330000Y-137220000D01*
X128330000Y-134620000D02*
X125670000Y-134620000D01*
X125670000Y-134620000D02*
X125670000Y-126940000D01*
X128330000Y-134620000D02*
X128330000Y-126940000D01*
X128330000Y-126940000D02*
X125670000Y-126940000D01*
%TO.C,J3*%
X137220000Y-104200000D02*
X135890000Y-104200000D01*
X137220000Y-102870000D02*
X137220000Y-104200000D01*
X134620000Y-104200000D02*
X132020000Y-104200000D01*
X134620000Y-101600000D02*
X134620000Y-104200000D01*
X137220000Y-101600000D02*
X134620000Y-101600000D01*
X132020000Y-104200000D02*
X132020000Y-91380000D01*
X137220000Y-101600000D02*
X137220000Y-91380000D01*
X137220000Y-91380000D02*
X132020000Y-91380000D01*
%TO.C,J2*%
X136910000Y-139700000D02*
X137920000Y-139700000D01*
X136910000Y-144780000D02*
X136910000Y-139700000D01*
X137920000Y-144780000D02*
X136910000Y-144780000D01*
X138020000Y-146130000D02*
X132020000Y-146130000D01*
X138020000Y-135830000D02*
X138020000Y-146130000D01*
X132070000Y-135830000D02*
X138020000Y-135830000D01*
X132070000Y-139030000D02*
X132070000Y-135830000D01*
X132020000Y-146130000D02*
X132020000Y-140380000D01*
%TO.C,J1*%
X152150000Y-139700000D02*
X153160000Y-139700000D01*
X152150000Y-144780000D02*
X152150000Y-139700000D01*
X153160000Y-144780000D02*
X152150000Y-144780000D01*
X153260000Y-146130000D02*
X147260000Y-146130000D01*
X153260000Y-135830000D02*
X153260000Y-146130000D01*
X147310000Y-135830000D02*
X153260000Y-135830000D01*
X147310000Y-139030000D02*
X147310000Y-135830000D01*
X147260000Y-146130000D02*
X147260000Y-140380000D01*
%TO.C,A1*%
X180470000Y-101470000D02*
X162430000Y-101470000D01*
X180470000Y-144910000D02*
X180470000Y-101470000D01*
X162430000Y-144910000D02*
X180470000Y-144910000D01*
X165100000Y-142240000D02*
X162430000Y-142240000D01*
X165100000Y-106680000D02*
X165100000Y-142240000D01*
X165100000Y-106680000D02*
X162430000Y-106680000D01*
X177800000Y-142240000D02*
X180470000Y-142240000D01*
X177800000Y-104140000D02*
X177800000Y-142240000D01*
X177800000Y-104140000D02*
X180470000Y-104140000D01*
X162430000Y-101470000D02*
X162430000Y-104140000D01*
X162430000Y-106680000D02*
X162430000Y-144910000D01*
X165100000Y-104140000D02*
X162430000Y-104140000D01*
X165100000Y-106680000D02*
X165100000Y-104140000D01*
%TO.C,J8*%
D11*
X184492380Y-108833333D02*
X185206666Y-108833333D01*
X185349523Y-108880952D01*
X185444761Y-108976190D01*
X185492380Y-109119047D01*
X185492380Y-109214285D01*
X184920952Y-108214285D02*
X184873333Y-108309523D01*
X184825714Y-108357142D01*
X184730476Y-108404761D01*
X184682857Y-108404761D01*
X184587619Y-108357142D01*
X184540000Y-108309523D01*
X184492380Y-108214285D01*
X184492380Y-108023809D01*
X184540000Y-107928571D01*
X184587619Y-107880952D01*
X184682857Y-107833333D01*
X184730476Y-107833333D01*
X184825714Y-107880952D01*
X184873333Y-107928571D01*
X184920952Y-108023809D01*
X184920952Y-108214285D01*
X184968571Y-108309523D01*
X185016190Y-108357142D01*
X185111428Y-108404761D01*
X185301904Y-108404761D01*
X185397142Y-108357142D01*
X185444761Y-108309523D01*
X185492380Y-108214285D01*
X185492380Y-108023809D01*
X185444761Y-107928571D01*
X185397142Y-107880952D01*
X185301904Y-107833333D01*
X185111428Y-107833333D01*
X185016190Y-107880952D01*
X184968571Y-107928571D01*
X184920952Y-108023809D01*
%TO.C,J7*%
X131792380Y-118253333D02*
X132506666Y-118253333D01*
X132649523Y-118300952D01*
X132744761Y-118396190D01*
X132792380Y-118539047D01*
X132792380Y-118634285D01*
X131792380Y-117872380D02*
X131792380Y-117205714D01*
X132792380Y-117634285D01*
%TO.C,J6*%
X152066666Y-103382380D02*
X152066666Y-104096666D01*
X152019047Y-104239523D01*
X151923809Y-104334761D01*
X151780952Y-104382380D01*
X151685714Y-104382380D01*
X152971428Y-103382380D02*
X152780952Y-103382380D01*
X152685714Y-103430000D01*
X152638095Y-103477619D01*
X152542857Y-103620476D01*
X152495238Y-103810952D01*
X152495238Y-104191904D01*
X152542857Y-104287142D01*
X152590476Y-104334761D01*
X152685714Y-104382380D01*
X152876190Y-104382380D01*
X152971428Y-104334761D01*
X153019047Y-104287142D01*
X153066666Y-104191904D01*
X153066666Y-103953809D01*
X153019047Y-103858571D01*
X152971428Y-103810952D01*
X152876190Y-103763333D01*
X152685714Y-103763333D01*
X152590476Y-103810952D01*
X152542857Y-103858571D01*
X152495238Y-103953809D01*
%TO.C,J5*%
X152066666Y-122432380D02*
X152066666Y-123146666D01*
X152019047Y-123289523D01*
X151923809Y-123384761D01*
X151780952Y-123432380D01*
X151685714Y-123432380D01*
X153019047Y-122432380D02*
X152542857Y-122432380D01*
X152495238Y-122908571D01*
X152542857Y-122860952D01*
X152638095Y-122813333D01*
X152876190Y-122813333D01*
X152971428Y-122860952D01*
X153019047Y-122908571D01*
X153066666Y-123003809D01*
X153066666Y-123241904D01*
X153019047Y-123337142D01*
X152971428Y-123384761D01*
X152876190Y-123432380D01*
X152638095Y-123432380D01*
X152542857Y-123384761D01*
X152495238Y-123337142D01*
%TO.C,J4*%
X126666666Y-137672380D02*
X126666666Y-138386666D01*
X126619047Y-138529523D01*
X126523809Y-138624761D01*
X126380952Y-138672380D01*
X126285714Y-138672380D01*
X127571428Y-138005714D02*
X127571428Y-138672380D01*
X127333333Y-137624761D02*
X127095238Y-138339047D01*
X127714285Y-138339047D01*
%TO.C,J3*%
X134286666Y-104652380D02*
X134286666Y-105366666D01*
X134239047Y-105509523D01*
X134143809Y-105604761D01*
X134000952Y-105652380D01*
X133905714Y-105652380D01*
X134667619Y-104652380D02*
X135286666Y-104652380D01*
X134953333Y-105033333D01*
X135096190Y-105033333D01*
X135191428Y-105080952D01*
X135239047Y-105128571D01*
X135286666Y-105223809D01*
X135286666Y-105461904D01*
X135239047Y-105557142D01*
X135191428Y-105604761D01*
X135096190Y-105652380D01*
X134810476Y-105652380D01*
X134715238Y-105604761D01*
X134667619Y-105557142D01*
%TO.C,J2*%
X130522380Y-141113333D02*
X131236666Y-141113333D01*
X131379523Y-141160952D01*
X131474761Y-141256190D01*
X131522380Y-141399047D01*
X131522380Y-141494285D01*
X130617619Y-140684761D02*
X130570000Y-140637142D01*
X130522380Y-140541904D01*
X130522380Y-140303809D01*
X130570000Y-140208571D01*
X130617619Y-140160952D01*
X130712857Y-140113333D01*
X130808095Y-140113333D01*
X130950952Y-140160952D01*
X131522380Y-140732380D01*
X131522380Y-140113333D01*
%TO.C,J1*%
X145762380Y-141113333D02*
X146476666Y-141113333D01*
X146619523Y-141160952D01*
X146714761Y-141256190D01*
X146762380Y-141399047D01*
X146762380Y-141494285D01*
X146762380Y-140113333D02*
X146762380Y-140684761D01*
X146762380Y-140399047D02*
X145762380Y-140399047D01*
X145905238Y-140494285D01*
X146000476Y-140589523D01*
X146048095Y-140684761D01*
%TO.C,A1*%
X170735714Y-100496666D02*
X171211904Y-100496666D01*
X170640476Y-100782380D02*
X170973809Y-99782380D01*
X171307142Y-100782380D01*
X172164285Y-100782380D02*
X171592857Y-100782380D01*
X171878571Y-100782380D02*
X171878571Y-99782380D01*
X171783333Y-99925238D01*
X171688095Y-100020476D01*
X171592857Y-100068095D01*
%TD*%
M02*
