%TF.GenerationSoftware,KiCad,Pcbnew,5.0.2-bee76a0~70~ubuntu14.04.1*%
%TF.CreationDate,2021-10-08T16:33:50+02:00*%
%TF.ProjectId,Literkarte Pong,4c697465-726b-4617-9274-6520506f6e67,rev?*%
%TF.SameCoordinates,Original*%
%TF.FileFunction,Copper,L2,Bot*%
%TF.FilePolarity,Positive*%
%FSLAX46Y46*%
G04 Gerber Fmt 4.6, Leading zero omitted, Abs format (unit mm)*
G04 Created by KiCad (PCBNEW 5.0.2-bee76a0~70~ubuntu14.04.1) date Fr 08 Okt 2021 16:33:50 CEST*
%MOMM*%
%LPD*%
G01*
G04 APERTURE LIST*
%TA.AperFunction,ComponentPad*%
%ADD10O,1.900000X3.500000*%
%TD*%
%TA.AperFunction,ComponentPad*%
%ADD11O,2.030000X1.730000*%
%TD*%
%TA.AperFunction,ComponentPad*%
%ADD12R,2.030000X1.730000*%
%TD*%
%TA.AperFunction,ComponentPad*%
%ADD13O,1.700000X1.700000*%
%TD*%
%TA.AperFunction,ComponentPad*%
%ADD14R,1.700000X1.700000*%
%TD*%
%TA.AperFunction,ComponentPad*%
%ADD15O,1.600000X1.600000*%
%TD*%
%TA.AperFunction,ComponentPad*%
%ADD16R,1.600000X1.600000*%
%TD*%
%TA.AperFunction,Conductor*%
%ADD17C,0.250000*%
%TD*%
G04 APERTURE END LIST*
D10*
%TO.P,J8,5*%
%TO.N,Net-(J8-Pad5)*%
X198740000Y-108500000D03*
X187340000Y-108500000D03*
%TD*%
D11*
%TO.P,J7,4*%
%TO.N,GND*%
X135890000Y-114300000D03*
%TO.P,J7,3*%
%TO.N,Net-(A1-Pad5)*%
X135890000Y-116840000D03*
%TO.P,J7,2*%
%TO.N,Net-(A1-Pad6)*%
X135890000Y-119380000D03*
D12*
%TO.P,J7,1*%
%TO.N,VCC*%
X135890000Y-121920000D03*
%TD*%
D13*
%TO.P,J6,10*%
%TO.N,VCC*%
X151130000Y-91440000D03*
%TO.P,J6,9*%
X153670000Y-91440000D03*
%TO.P,J6,8*%
%TO.N,Net-(A1-Pad2)*%
X151130000Y-93980000D03*
%TO.P,J6,7*%
X153670000Y-93980000D03*
%TO.P,J6,6*%
%TO.N,Net-(J3-Pad5)*%
X151130000Y-96520000D03*
%TO.P,J6,5*%
X153670000Y-96520000D03*
%TO.P,J6,4*%
%TO.N,Net-(J6-Pad3)*%
X151130000Y-99060000D03*
%TO.P,J6,3*%
X153670000Y-99060000D03*
%TO.P,J6,2*%
%TO.N,GND*%
X151130000Y-101600000D03*
D14*
%TO.P,J6,1*%
X153670000Y-101600000D03*
%TD*%
D13*
%TO.P,J5,6*%
%TO.N,GND*%
X151130000Y-115570000D03*
%TO.P,J5,5*%
X153670000Y-115570000D03*
%TO.P,J5,4*%
%TO.N,Net-(A1-Pad7)*%
X151130000Y-118110000D03*
%TO.P,J5,3*%
X153670000Y-118110000D03*
%TO.P,J5,2*%
%TO.N,VCC*%
X151130000Y-120650000D03*
D14*
%TO.P,J5,1*%
X153670000Y-120650000D03*
%TD*%
D13*
%TO.P,J4,4*%
%TO.N,GND*%
X127000000Y-128270000D03*
%TO.P,J4,3*%
%TO.N,Net-(A1-Pad8)*%
X127000000Y-130810000D03*
%TO.P,J4,2*%
%TO.N,Net-(A1-Pad9)*%
X127000000Y-133350000D03*
D14*
%TO.P,J4,1*%
%TO.N,VCC*%
X127000000Y-135890000D03*
%TD*%
D13*
%TO.P,J3,10*%
%TO.N,VCC*%
X133350000Y-92710000D03*
%TO.P,J3,9*%
X135890000Y-92710000D03*
%TO.P,J3,8*%
%TO.N,Net-(A1-Pad1)*%
X133350000Y-95250000D03*
%TO.P,J3,7*%
X135890000Y-95250000D03*
%TO.P,J3,6*%
%TO.N,Net-(J3-Pad5)*%
X133350000Y-97790000D03*
%TO.P,J3,5*%
X135890000Y-97790000D03*
%TO.P,J3,4*%
%TO.N,Net-(J3-Pad3)*%
X133350000Y-100330000D03*
%TO.P,J3,3*%
X135890000Y-100330000D03*
%TO.P,J3,2*%
%TO.N,GND*%
X133350000Y-102870000D03*
D14*
%TO.P,J3,1*%
X135890000Y-102870000D03*
%TD*%
D11*
%TO.P,J2,4*%
%TO.N,GND*%
X134620000Y-137160000D03*
%TO.P,J2,3*%
%TO.N,Net-(A1-Pad10)*%
X134620000Y-139700000D03*
%TO.P,J2,2*%
%TO.N,Net-(A1-Pad11)*%
X134620000Y-142240000D03*
D12*
%TO.P,J2,1*%
%TO.N,VCC*%
X134620000Y-144780000D03*
%TD*%
D11*
%TO.P,J1,4*%
%TO.N,GND*%
X149860000Y-137160000D03*
%TO.P,J1,3*%
%TO.N,Net-(A1-Pad13)*%
X149860000Y-139700000D03*
%TO.P,J1,2*%
%TO.N,Net-(A1-Pad12)*%
X149860000Y-142240000D03*
D12*
%TO.P,J1,1*%
%TO.N,VCC*%
X149860000Y-144780000D03*
%TD*%
D15*
%TO.P,A1,16*%
%TO.N,Net-(A1-Pad16)*%
X179070000Y-140970000D03*
%TO.P,A1,15*%
%TO.N,Net-(A1-Pad15)*%
X163830000Y-140970000D03*
%TO.P,A1,30*%
%TO.N,Net-(A1-Pad30)*%
X179070000Y-105410000D03*
%TO.P,A1,14*%
%TO.N,Net-(A1-Pad14)*%
X163830000Y-138430000D03*
%TO.P,A1,29*%
%TO.N,GND*%
X179070000Y-107950000D03*
%TO.P,A1,13*%
%TO.N,Net-(A1-Pad13)*%
X163830000Y-135890000D03*
%TO.P,A1,28*%
%TO.N,Net-(A1-Pad28)*%
X179070000Y-110490000D03*
%TO.P,A1,12*%
%TO.N,Net-(A1-Pad12)*%
X163830000Y-133350000D03*
%TO.P,A1,27*%
%TO.N,VCC*%
X179070000Y-113030000D03*
%TO.P,A1,11*%
%TO.N,Net-(A1-Pad11)*%
X163830000Y-130810000D03*
%TO.P,A1,26*%
%TO.N,Net-(A1-Pad26)*%
X179070000Y-115570000D03*
%TO.P,A1,10*%
%TO.N,Net-(A1-Pad10)*%
X163830000Y-128270000D03*
%TO.P,A1,25*%
%TO.N,Net-(A1-Pad25)*%
X179070000Y-118110000D03*
%TO.P,A1,9*%
%TO.N,Net-(A1-Pad9)*%
X163830000Y-125730000D03*
%TO.P,A1,24*%
%TO.N,Net-(A1-Pad24)*%
X179070000Y-120650000D03*
%TO.P,A1,8*%
%TO.N,Net-(A1-Pad8)*%
X163830000Y-123190000D03*
%TO.P,A1,23*%
%TO.N,Net-(A1-Pad23)*%
X179070000Y-123190000D03*
%TO.P,A1,7*%
%TO.N,Net-(A1-Pad7)*%
X163830000Y-120650000D03*
%TO.P,A1,22*%
%TO.N,Net-(A1-Pad22)*%
X179070000Y-125730000D03*
%TO.P,A1,6*%
%TO.N,Net-(A1-Pad6)*%
X163830000Y-118110000D03*
%TO.P,A1,21*%
%TO.N,Net-(A1-Pad21)*%
X179070000Y-128270000D03*
%TO.P,A1,5*%
%TO.N,Net-(A1-Pad5)*%
X163830000Y-115570000D03*
%TO.P,A1,20*%
%TO.N,Net-(A1-Pad20)*%
X179070000Y-130810000D03*
%TO.P,A1,4*%
%TO.N,Net-(A1-Pad4)*%
X163830000Y-113030000D03*
%TO.P,A1,19*%
%TO.N,Net-(A1-Pad19)*%
X179070000Y-133350000D03*
%TO.P,A1,3*%
%TO.N,Net-(A1-Pad3)*%
X163830000Y-110490000D03*
%TO.P,A1,18*%
%TO.N,Net-(A1-Pad18)*%
X179070000Y-135890000D03*
%TO.P,A1,2*%
%TO.N,Net-(A1-Pad2)*%
X163830000Y-107950000D03*
%TO.P,A1,17*%
%TO.N,Net-(A1-Pad17)*%
X179070000Y-138430000D03*
D16*
%TO.P,A1,1*%
%TO.N,Net-(A1-Pad1)*%
X163830000Y-105410000D03*
%TD*%
D17*
%TO.N,GND*%
X153670000Y-109140600D02*
X153670000Y-101600000D01*
X153670000Y-115570000D02*
X153670000Y-109140600D01*
X177944700Y-107950000D02*
X176754100Y-109140600D01*
X176754100Y-109140600D02*
X153670000Y-109140600D01*
X179070000Y-107950000D02*
X177944700Y-107950000D01*
X128175300Y-128270000D02*
X134620000Y-134714700D01*
X134620000Y-134714700D02*
X134620000Y-137160000D01*
X128175300Y-128270000D02*
X128175300Y-120674400D01*
X128175300Y-120674400D02*
X134549700Y-114300000D01*
X127000000Y-128270000D02*
X128175300Y-128270000D01*
X135890000Y-114300000D02*
X134549700Y-114300000D01*
X135890000Y-102870000D02*
X135890000Y-114300000D01*
%TO.N,Net-(A1-Pad13)*%
X163830000Y-135890000D02*
X162704700Y-135890000D01*
X149860000Y-139700000D02*
X149860000Y-138509700D01*
X162704700Y-135890000D02*
X160085000Y-138509700D01*
X160085000Y-138509700D02*
X149860000Y-138509700D01*
%TO.N,VCC*%
X153302700Y-92615300D02*
X153670000Y-92615300D01*
X153084100Y-119474700D02*
X152494700Y-118885300D01*
X152494700Y-118885300D02*
X152494700Y-93423300D01*
X152494700Y-93423300D02*
X153302700Y-92615300D01*
X153302700Y-92615300D02*
X152305300Y-91617900D01*
X152305300Y-91617900D02*
X152305300Y-91440000D01*
X151130000Y-91440000D02*
X152305300Y-91440000D01*
X153670000Y-119474700D02*
X153084100Y-119474700D01*
X153084100Y-119474700D02*
X152305300Y-120253500D01*
X152305300Y-120253500D02*
X152305300Y-120650000D01*
X151130000Y-120650000D02*
X152305300Y-120650000D01*
X153670000Y-120650000D02*
X153670000Y-119474700D01*
X153670000Y-91440000D02*
X153670000Y-92615300D01*
%TO.N,Net-(A1-Pad7)*%
X163830000Y-120650000D02*
X162704700Y-120650000D01*
X162704700Y-120650000D02*
X160164700Y-118110000D01*
X160164700Y-118110000D02*
X153670000Y-118110000D01*
%TO.N,Net-(A1-Pad2)*%
X153670000Y-93980000D02*
X153670000Y-95155300D01*
X163830000Y-107950000D02*
X163830000Y-106824700D01*
X163830000Y-106824700D02*
X163126600Y-106824700D01*
X163126600Y-106824700D02*
X154845300Y-98543400D01*
X154845300Y-98543400D02*
X154845300Y-95963200D01*
X154845300Y-95963200D02*
X154037400Y-95155300D01*
X154037400Y-95155300D02*
X153670000Y-95155300D01*
%TO.N,Net-(J8-Pad5)*%
X188217900Y-109377900D02*
X197862100Y-109377900D01*
%TD*%
M02*
